<svg width="188" height="56" viewBox="0 0 188 56" fill="none" xmlns="http://www.w3.org/2000/svg">
<path fill-rule="evenodd" clip-rule="evenodd" d="M18.9718 0.0862611C20.0054 -0.213917 21.198 0.326404 21.6551 1.30699C22.1322 2.24755 21.8539 3.48828 21.039 4.12867C20.3035 4.74903 19.1705 4.80907 18.3755 4.28876C17.5605 3.78846 17.1232 2.72783 17.3618 1.78727C17.5208 0.966785 18.1568 0.28638 18.9718 0.0862611Z" fill="white"/>
<path fill-rule="evenodd" clip-rule="evenodd" d="M29.864 0.086964C30.8778 -0.213215 32.0505 0.287083 32.5275 1.22764C33.0642 2.1682 32.7859 3.46898 31.9312 4.12937C31.1958 4.72973 30.1026 4.78976 29.3075 4.28946C28.5323 3.82919 28.095 2.88863 28.2143 2.00811C28.3137 1.12758 28.9895 0.327107 29.864 0.086964Z" fill="white"/>
<path fill-rule="evenodd" clip-rule="evenodd" d="M24.6568 1.68798C25.929 1.44784 27.2408 2.48846 27.3004 3.78923C27.4396 5.02997 26.406 6.2507 25.1538 6.29072C23.981 6.41079 22.8282 5.45022 22.7089 4.26952C22.5499 3.04879 23.4642 1.82807 24.6568 1.68798Z" fill="white"/>
<path fill-rule="evenodd" clip-rule="evenodd" d="M14.937 4.06922C16.0501 3.74903 17.3023 4.40942 17.6799 5.51008C18.0974 6.5507 17.6004 7.85147 16.6066 8.37178C15.6326 8.93211 14.281 8.61192 13.645 7.67136C12.9692 6.75082 13.1083 5.34998 13.963 4.60954C14.2612 4.34939 14.5991 4.16928 14.937 4.06922Z" fill="white"/>
<path fill-rule="evenodd" clip-rule="evenodd" d="M33.9585 4.06964C34.9126 3.80948 35.9859 4.24974 36.4828 5.09024C36.9797 5.89072 36.9201 6.99137 36.3437 7.7118C35.7275 8.53229 34.5349 8.85248 33.6007 8.43223C32.6864 8.052 32.11 7.05141 32.2093 6.07083C32.3286 5.13027 33.0442 4.28977 33.9585 4.06964Z" fill="white"/>
<path fill-rule="evenodd" clip-rule="evenodd" d="M9.25233 5.16978C10.3257 4.80956 11.5779 5.38991 12.0351 6.41052C12.532 7.43112 12.1146 8.77192 11.1406 9.35227C10.3455 9.85256 9.27221 9.79253 8.53677 9.23219C7.84108 8.71188 7.50318 7.79134 7.68207 6.95084C7.8212 6.13035 8.45726 5.40992 9.25233 5.16978Z" fill="white"/>
<path fill-rule="evenodd" clip-rule="evenodd" d="M39.4052 5.18989C40.3195 4.8697 41.3929 5.22992 41.9693 6.01038C42.4464 6.65076 42.5656 7.53129 42.2476 8.27173C41.9494 8.99216 41.2736 9.55249 40.5183 9.67256C39.3456 9.91271 38.1132 9.07221 37.8747 7.8915C37.5964 6.77083 38.312 5.53009 39.4052 5.18989Z" fill="white"/>
<path fill-rule="evenodd" clip-rule="evenodd" d="M20.6221 5.64988C21.7154 5.44976 22.8881 6.1902 23.1862 7.27085C23.5241 8.35149 22.9676 9.61224 21.934 10.0525C21.1588 10.4127 20.165 10.2926 19.509 9.7123C18.7935 9.13195 18.4953 8.07132 18.7935 7.1908C19.0519 6.39032 19.7873 5.76996 20.6221 5.64988Z" fill="white"/>
<path fill-rule="evenodd" clip-rule="evenodd" d="M28.5925 5.67124C29.7851 5.39107 31.0771 6.21156 31.3156 7.43228C31.6337 8.67302 30.7392 10.0338 29.487 10.234C28.2944 10.4941 27.0024 9.61358 26.8036 8.41287C26.5452 7.19214 27.3999 5.89137 28.5925 5.67124Z" fill="white"/>
<path fill-rule="evenodd" clip-rule="evenodd" d="M13.3474 9.43281C14.5003 9.19267 15.7326 9.99314 15.991 11.1538C16.2693 12.2145 15.673 13.4352 14.6593 13.8554C13.6654 14.2957 12.4132 13.9155 11.8368 12.9949C11.3995 12.3545 11.3399 11.474 11.6579 10.7736C11.9759 10.0732 12.612 9.57289 13.3474 9.43281Z" fill="white"/>
<path fill-rule="evenodd" clip-rule="evenodd" d="M35.7674 9.47165C36.8606 9.19149 38.093 9.85188 38.4507 10.9325C38.888 12.0132 38.3315 13.374 37.2581 13.8342C36.2444 14.3345 34.9127 13.9343 34.3363 12.9737C33.9188 12.3133 33.8791 11.4528 34.1971 10.7524C34.5151 10.112 35.0916 9.61174 35.7674 9.47165Z" fill="white"/>
<path fill-rule="evenodd" clip-rule="evenodd" d="M24.0604 9.95236C24.9946 9.5121 26.1872 9.79227 26.8232 10.6128C27.499 11.4332 27.4792 12.694 26.8232 13.5145C26.4654 13.9547 25.9487 14.2549 25.3921 14.355C25.1536 14.375 24.8952 14.375 24.6567 14.355C23.6827 14.2149 22.8479 13.3544 22.7485 12.3538C22.5895 11.3732 23.1659 10.3526 24.0604 9.95236Z" fill="white"/>
<path fill-rule="evenodd" clip-rule="evenodd" d="M7.6017 10.573C8.7943 10.2328 10.1459 11.0533 10.4043 12.274C10.7223 13.4747 9.88752 14.8355 8.67504 15.0757C7.48244 15.3758 6.15069 14.5153 5.91217 13.2946C5.6339 12.1339 6.42897 10.8331 7.6017 10.573Z" fill="white"/>
<path fill-rule="evenodd" clip-rule="evenodd" d="M41.2929 10.5725C42.3861 10.2523 43.6185 10.8927 44.016 11.9533C44.4533 12.9939 43.9961 14.3147 43.0023 14.835C42.0284 15.4154 40.637 15.0952 40.0009 14.1546C39.3251 13.2341 39.4643 11.8332 40.319 11.0928C40.6171 10.8527 40.955 10.6725 41.2929 10.5725Z" fill="white"/>
<path fill-rule="evenodd" clip-rule="evenodd" d="M17.8381 11.6536C18.9114 11.1333 20.3028 11.6336 20.8196 12.6942C21.396 13.7348 20.9786 15.1757 19.945 15.756C19.7264 15.8761 19.5077 15.9562 19.2891 16.0162C18.1561 16.2964 16.884 15.5559 16.566 14.4152C16.2281 13.3546 16.8045 12.0939 17.8381 11.6536Z" fill="white"/>
<path fill-rule="evenodd" clip-rule="evenodd" d="M29.2483 12.6539C29.7849 11.6133 31.1366 11.153 32.19 11.6333C33.2833 12.0936 33.8597 13.4544 33.4224 14.555C33.0447 15.6357 31.8124 16.2961 30.7192 16.0159C30.4806 15.9559 30.262 15.8558 30.0632 15.7357C29.0495 15.1354 28.652 13.6945 29.2483 12.6539Z" fill="white"/>
<path fill-rule="evenodd" clip-rule="evenodd" d="M3.16978 14.115C4.263 13.8149 5.49536 14.4753 5.87302 15.5559C6.27056 16.5965 5.79351 17.8773 4.81955 18.3976C4.02448 18.8379 2.97101 18.7578 2.27532 18.1574C1.55976 17.5771 1.24173 16.5565 1.52 15.696C1.73865 14.9355 2.39458 14.2952 3.16978 14.115Z" fill="white"/>
<path fill-rule="evenodd" clip-rule="evenodd" d="M45.646 14.1553C46.7591 13.755 48.1108 14.4154 48.5083 15.5361C48.9456 16.6167 48.4089 17.9775 47.3356 18.4578C46.302 18.9781 44.9504 18.5579 44.3739 17.5573C43.7578 16.5967 44.0162 15.1959 44.9305 14.5155C45.1491 14.3754 45.3876 14.2553 45.646 14.1553Z" fill="white"/>
<path fill-rule="evenodd" clip-rule="evenodd" d="M12.8301 16.297C13.4463 15.6566 14.4401 15.4165 15.275 15.7166C16.0899 15.9968 16.7061 16.7973 16.7856 17.6578C16.8452 18.2782 16.6663 18.8985 16.2688 19.3788C16.1098 19.5589 15.9309 19.719 15.7321 19.8591C14.7979 20.4795 13.4463 20.2593 12.7307 19.3988C11.9754 18.5383 12.0152 17.1175 12.8301 16.297Z" fill="white"/>
<path fill-rule="evenodd" clip-rule="evenodd" d="M34.0389 16.1773C34.9134 15.3568 36.4042 15.3968 37.2192 16.2774C38.054 17.0979 38.0937 18.5587 37.3185 19.4192C36.603 20.2798 35.2514 20.4799 34.3171 19.8395C34.1184 19.6994 33.9395 19.5393 33.7805 19.3592C33.0252 18.4587 33.1245 16.9778 34.0389 16.1773Z" fill="white"/>
<path fill-rule="evenodd" clip-rule="evenodd" d="M8.71555 16.1569C9.8684 15.9368 11.1008 16.7573 11.3393 17.9179C11.6176 19.0386 10.9417 20.2793 9.84853 20.6396C8.79506 21.0198 7.52295 20.4995 7.04591 19.4989C6.708 18.8585 6.708 18.058 7.04591 17.4176C7.36394 16.7372 7.99999 16.277 8.71555 16.1569Z" fill="white"/>
<path fill-rule="evenodd" clip-rule="evenodd" d="M40.5982 16.1569C41.7113 15.9568 42.884 16.6772 43.1822 17.7779C43.5399 18.8985 42.9039 20.2193 41.8107 20.6195C40.9361 20.9798 39.8628 20.6996 39.2466 19.9792C38.6503 19.3188 38.5111 18.3182 38.8689 17.4977C39.1671 16.7973 39.8429 16.277 40.5982 16.1569Z" fill="white"/>
<path fill-rule="evenodd" clip-rule="evenodd" d="M3.96538 19.7788C4.95922 19.4786 6.11207 19.9389 6.60899 20.8595C7.08603 21.68 6.98664 22.8006 6.35059 23.521C5.69466 24.3015 4.52193 24.5617 3.6076 24.1014C2.71315 23.6811 2.15661 22.6405 2.31562 21.6399C2.45476 20.7794 3.13056 20.019 3.96538 19.7788Z" fill="white"/>
<path fill-rule="evenodd" clip-rule="evenodd" d="M44.7721 19.7983C45.9449 19.398 47.3164 20.1385 47.6543 21.3392C48.0319 22.4599 47.3959 23.7807 46.3026 24.1809C45.2889 24.6212 43.9969 24.1609 43.4603 23.2003C42.9037 22.2598 43.1224 20.939 43.9771 20.2586C44.1957 20.0384 44.474 19.8983 44.7721 19.7983Z" fill="white"/>
<path fill-rule="evenodd" clip-rule="evenodd" d="M10.9019 21.3598C11.4585 20.8195 12.2734 20.5994 13.0089 20.7795C13.8238 20.9596 14.4996 21.62 14.7183 22.4405C14.8375 22.8808 14.8177 23.341 14.6785 23.7613C14.599 23.9814 14.4798 24.2015 14.3605 24.4017C13.7443 25.2822 12.4921 25.6024 11.538 25.1421C10.8224 24.8219 10.3056 24.1015 10.2261 23.321C10.1069 22.6006 10.3851 21.8601 10.9019 21.3598Z" fill="white"/>
<path fill-rule="evenodd" clip-rule="evenodd" d="M35.8269 21.4985C36.5624 20.618 37.9538 20.4579 38.8681 21.1183C39.7625 21.7187 40.1203 22.9594 39.683 23.94C39.3054 24.8806 38.2519 25.4809 37.2382 25.3208C36.622 25.2408 36.0456 24.8806 35.6878 24.3803C35.5487 24.1801 35.4493 23.96 35.3698 23.7399C35.1313 22.9794 35.3102 22.0989 35.8269 21.4985Z" fill="white"/>
<path fill-rule="evenodd" clip-rule="evenodd" d="M7.44372 24.3218C8.63633 23.9615 10.0078 24.782 10.2662 26.0028C10.5842 27.2035 9.78918 28.5443 8.59657 28.8044C7.38409 29.1446 6.03247 28.3041 5.79395 27.0634C5.4958 25.8827 6.29087 24.6019 7.44372 24.3218Z" fill="white"/>
<path fill-rule="evenodd" clip-rule="evenodd" d="M41.5316 24.3013C42.5055 24.0611 43.5789 24.5614 44.0559 25.4419C44.533 26.2824 44.3938 27.4031 43.7379 28.1035C43.0621 28.884 41.8297 29.1041 40.9154 28.5838C40.0408 28.1235 39.5638 27.0629 39.7625 26.0823C39.9414 25.2218 40.657 24.4814 41.5316 24.3013Z" fill="white"/>
<path fill-rule="evenodd" clip-rule="evenodd" d="M1.8381 24.9619C3.07046 24.6617 4.38232 25.5622 4.58109 26.823C4.83948 28.0437 3.90528 29.3645 2.67292 29.5246C1.46044 29.7647 0.208209 28.8241 0.0293189 27.6034C-0.169448 26.4227 0.665374 25.182 1.8381 24.9619Z" fill="white"/>
<path fill-rule="evenodd" clip-rule="evenodd" d="M47.2367 24.9597C48.3696 24.6796 49.602 25.38 49.9399 26.5006C50.3176 27.5813 49.7411 28.9021 48.6877 29.3423C47.6342 29.8426 46.2826 29.3824 45.7459 28.3417C45.1695 27.3411 45.4875 25.9603 46.4416 25.3199C46.6603 25.1598 46.9385 25.0398 47.2367 24.9597Z" fill="white"/>
<path fill-rule="evenodd" clip-rule="evenodd" d="M10.8619 29.3642C10.7029 28.1635 11.6371 26.9428 12.8496 26.8227C14.0024 26.6426 15.195 27.4831 15.4137 28.6438C15.4534 28.8839 15.4534 29.124 15.4534 29.3642C15.3541 30.5049 14.3205 31.4654 13.1676 31.4454C12.0148 31.4654 10.9613 30.5049 10.8619 29.3642Z" fill="white"/>
<path fill-rule="evenodd" clip-rule="evenodd" d="M34.6545 28.6439C34.8731 27.5032 36.026 26.6627 37.1788 26.8228C38.3714 26.9229 39.3255 28.1036 39.2063 29.3043C39.1466 30.505 38.0335 31.5056 36.8608 31.4456C35.7278 31.4456 34.7141 30.505 34.6147 29.3643C34.5949 29.1242 34.6147 28.884 34.6545 28.6439Z" fill="white"/>
<path fill-rule="evenodd" clip-rule="evenodd" d="M5.15751 29.564C6.23085 29.2838 7.42346 29.9242 7.82099 30.9648C8.25828 32.0054 7.80111 33.3062 6.80728 33.8465C5.83332 34.4269 4.48171 34.1267 3.82577 33.2061C3.32886 32.5457 3.22947 31.5852 3.58725 30.8447C3.8854 30.2043 4.48171 29.7241 5.15751 29.564Z" fill="white"/>
<path fill-rule="evenodd" clip-rule="evenodd" d="M43.9768 29.5432C45.1296 29.303 46.362 30.1035 46.6204 31.2642C46.9185 32.3849 46.2427 33.6656 45.1296 34.0258C44.0563 34.4261 42.7444 33.8457 42.2873 32.7851C41.8102 31.7845 42.1879 30.4637 43.1221 29.8834C43.3805 29.7033 43.6786 29.6032 43.9768 29.5432Z" fill="white"/>
<path d="M24.6373 14.355C24.8758 14.375 25.1342 14.375 25.3727 14.355C25.3727 26.9625 25.3727 39.55 25.3727 52.1575C25.8497 52.2775 26.287 52.5777 26.5256 53.038C26.8833 53.6784 26.784 54.5189 26.287 55.0392C25.81 55.5795 24.9752 55.7596 24.3192 55.4594C23.6037 55.1592 23.1664 54.3588 23.2856 53.5983C23.385 52.8979 23.9416 52.3176 24.6174 52.1374C24.6373 39.55 24.6373 26.9625 24.6373 14.355ZM24.8758 53.3782C24.518 53.4582 24.3789 53.9585 24.6373 54.1987C24.8559 54.4788 25.3528 54.3788 25.4721 54.0586C25.651 53.6984 25.2534 53.2381 24.8758 53.3782Z" fill="white"/>
<path d="M19.2905 16.0155C19.529 15.9555 19.7477 15.8554 19.9465 15.7554C20.9204 18.1168 21.8944 20.4782 22.8684 22.8396C23.1466 23.5 23.4448 24.1604 23.6237 24.8608C23.8622 25.7013 23.9815 26.5618 23.9815 27.4223C23.9815 33.0056 23.9815 38.609 23.9815 44.1923C23.9815 44.6926 24.0013 45.2329 23.8423 45.7132C23.5243 46.7338 23.2063 47.7544 22.8684 48.775C23.2261 48.9751 23.5243 49.2553 23.6833 49.6355C23.9616 50.2359 23.8622 50.9963 23.405 51.4966C23.0472 51.9169 22.4509 52.157 21.8944 52.077C21.318 52.0169 20.7813 51.6167 20.5229 51.0964C20.2247 50.476 20.344 49.6956 20.8012 49.1953C21.1391 48.795 21.636 48.6149 22.1528 48.5949C22.3913 47.8144 22.6298 47.034 22.8882 46.2735C23.0472 45.7732 23.2659 45.2729 23.246 44.7326C23.246 38.9292 23.246 33.1257 23.246 27.3223C23.246 26.2016 23.0075 25.0609 22.5901 24.0203C21.5167 21.3987 20.4036 18.7171 19.2905 16.0155ZM21.8944 49.9557C21.5764 50.1158 21.5565 50.6161 21.8546 50.8162C22.1528 51.0564 22.6497 50.7962 22.6497 50.416C22.6696 50.0358 22.2124 49.7356 21.8944 49.9557Z" fill="white"/>
<path d="M30.0837 15.7358C30.2825 15.8559 30.521 15.956 30.7396 16.016C29.7458 18.4374 28.752 20.8589 27.7581 23.2803C27.5395 23.8206 27.2811 24.361 27.1221 24.9413C26.8836 25.7618 26.7643 26.6023 26.7643 27.4628C26.7643 33.0862 26.7643 38.6895 26.7643 44.3128C26.7643 44.7331 26.7444 45.1733 26.8836 45.5736C27.2016 46.5942 27.5196 47.6348 27.8575 48.6554C28.3544 48.6554 28.8712 48.8555 29.2091 49.2558C29.7458 49.8561 29.7856 50.8367 29.2886 51.4571C28.8116 52.1175 27.8575 52.3376 27.142 51.9574C26.4661 51.6372 26.0686 50.8367 26.2078 50.0963C26.2873 49.5359 26.6649 49.0757 27.1618 48.8155C26.9233 48.0551 26.6848 47.2946 26.4463 46.5542C26.2873 45.9938 26.0487 45.4535 26.0686 44.8732C26.0686 39.4499 26.0686 34.0067 26.0686 28.5835C26.0686 27.8631 26.0487 27.1226 26.1282 26.4022C26.2276 25.5016 26.4662 24.6011 26.8041 23.7606C27.8774 21.079 28.9706 18.4174 30.0837 15.7358ZM27.6389 49.9562C27.3407 50.1163 27.2811 50.5766 27.5594 50.7967C27.8376 51.0568 28.3346 50.8567 28.3743 50.4965C28.4737 50.0763 27.9768 49.7361 27.6389 49.9562Z" fill="white"/>
<path d="M15.7129 19.8582C15.9117 19.7181 16.0905 19.558 16.2496 19.3779C17.7801 21.0789 19.2907 22.78 20.8212 24.501C21.1392 24.8612 21.497 25.2214 21.7554 25.6216C22.312 26.4421 22.6101 27.4027 22.6101 28.3833C22.6101 33.0461 22.6101 37.7088 22.6101 42.3716C22.6101 42.7919 22.63 43.2321 22.5505 43.6524C22.4511 44.1927 22.2325 44.693 21.9343 45.1533C20.8013 46.8143 19.6882 48.4552 18.5553 50.1162C18.8335 50.3564 19.0919 50.6565 19.1913 51.0168C19.3901 51.6371 19.2112 52.3776 18.7143 52.8178C18.2372 53.2781 17.5018 53.3982 16.9055 53.158C16.3291 52.9379 15.8918 52.3776 15.8322 51.7572C15.7526 51.1368 16.0309 50.4964 16.5278 50.1362C16.9055 49.8361 17.4223 49.756 17.8795 49.8361C18.8335 48.4152 19.8075 47.0144 20.7616 45.5935C21.1194 45.0332 21.5765 44.5329 21.7554 43.8725C21.8946 43.4122 21.8946 42.9319 21.8946 42.4517C21.8946 37.7689 21.8946 33.0861 21.8946 28.3833C21.8946 27.3427 21.497 26.3221 20.8013 25.5416C19.1118 23.6605 17.4223 21.7593 15.7129 19.8582ZM17.3825 51.0768C17.0248 51.1768 16.9254 51.6972 17.2036 51.9373C17.462 52.1975 17.959 52.0574 18.0385 51.6972C18.1379 51.2969 17.7403 50.9367 17.3825 51.0768Z" fill="white"/>
<path d="M28.5732 25.2214C30.3025 23.2602 32.0517 21.3191 33.8008 19.3579C33.9598 19.538 34.1387 19.6981 34.3375 19.8382C32.7672 21.5992 31.1771 23.3603 29.6068 25.1414C29.3683 25.4015 29.1099 25.6617 28.9111 25.9618C28.4142 26.6623 28.1359 27.5228 28.1359 28.4033C28.1359 33.2862 28.1359 38.1491 28.1359 43.032C28.1359 43.7124 28.3745 44.3528 28.772 44.8931C29.905 46.5341 31.0181 48.1951 32.1312 49.836C32.5486 49.776 32.9859 49.816 33.3436 50.0362C33.8604 50.3363 34.1983 50.9167 34.1983 51.517C34.2182 52.1374 33.8604 52.7578 33.3039 53.058C32.7275 53.3782 31.992 53.3381 31.4553 52.9579C30.8988 52.5777 30.6205 51.8572 30.7597 51.1969C30.8392 50.7566 31.0976 50.3764 31.4355 50.1162C30.2627 48.3752 29.0701 46.6542 27.8974 44.9131C27.5396 44.3128 27.3806 43.6324 27.3806 42.9319C27.3806 38.3492 27.3806 33.7665 27.3806 29.1838C27.3806 28.7435 27.3607 28.2832 27.4204 27.843C27.5595 26.9024 27.957 25.9618 28.5732 25.2214ZM32.2902 51.0768C31.9324 51.1969 31.8728 51.7372 32.1709 51.9373C32.4293 52.1774 32.9063 51.9973 32.966 51.6571C33.0852 51.2969 32.648 50.9167 32.2902 51.0768Z" fill="white"/>
<path d="M14.6791 23.7603C16.4282 24.7809 18.1774 25.8215 19.9265 26.8421C20.7216 27.3024 21.2384 28.2029 21.2185 29.1234C21.2185 33.1859 21.2185 37.2283 21.2185 41.2907C21.1986 42.1712 20.8806 43.1118 20.2048 43.6921C19.37 44.5126 18.5749 45.3531 17.76 46.1736C17.9389 46.4738 18.0979 46.814 18.0979 47.1542C18.1376 47.8346 17.7401 48.495 17.1239 48.7951C16.5872 49.0553 15.9114 49.0153 15.4145 48.6951C14.858 48.3349 14.5598 47.6545 14.6393 46.9941C14.7188 46.3537 15.1959 45.7733 15.8319 45.5732C16.2891 45.4131 16.786 45.4932 17.2034 45.6933C18.0382 44.8528 18.8532 44.0123 19.688 43.1718C20.2446 42.6915 20.503 41.9111 20.4831 41.1906C20.4831 37.1882 20.4831 33.1859 20.4831 29.2035C20.503 28.5031 20.1253 27.8027 19.5091 27.4625C17.7798 26.4418 16.0506 25.4212 14.3213 24.4006C14.5002 24.2005 14.5996 23.9804 14.6791 23.7603ZM16.1301 46.794C15.812 46.9741 15.812 47.4944 16.1499 47.6545C16.468 47.8546 16.9053 47.5944 16.9053 47.2342C16.9251 46.854 16.4481 46.5738 16.1301 46.794Z" fill="white"/>
<path d="M30.4813 26.6219C32.1112 25.6614 33.7411 24.7008 35.371 23.7402C35.4505 23.9604 35.5499 24.1805 35.689 24.3806C33.9399 25.4012 32.2106 26.4418 30.4615 27.4624C29.8652 27.8027 29.4875 28.5031 29.5074 29.2035C29.5074 33.1859 29.5074 37.1482 29.5074 41.1306C29.4875 41.891 29.726 42.6915 30.3024 43.1918C31.1373 44.0123 31.9522 44.8728 32.787 45.7133C33.2243 45.4932 33.761 45.4331 34.2182 45.6132C34.8343 45.8334 35.3114 46.4337 35.3511 47.0941C35.4108 47.6945 35.1126 48.3349 34.6157 48.6751C34.079 49.0553 33.3237 49.0953 32.7672 48.7551C32.2106 48.4549 31.8727 47.8146 31.8926 47.1942C31.8926 46.834 32.0516 46.4938 32.2305 46.1936C31.4354 45.3731 30.6403 44.5526 29.8254 43.7521C29.1297 43.1518 28.7918 42.2112 28.7719 41.3107C28.7719 37.2883 28.7719 33.2659 28.7719 29.2435C28.7521 28.5031 29.0502 27.7826 29.5869 27.2623C29.8652 26.9622 30.1832 26.8021 30.4813 26.6219ZM33.4032 46.7739C33.0653 46.934 33.0454 47.4543 33.3635 47.6545C33.6616 47.8746 34.1585 47.6144 34.1386 47.2342C34.1585 46.874 33.7212 46.5938 33.4032 46.7739Z" fill="white"/>
<path d="M15.4146 28.6441C16.2494 28.6241 17.0843 28.6441 17.9191 28.6841C18.4359 28.7041 18.9924 28.7842 19.39 29.1444C19.7676 29.5046 19.867 30.0449 19.867 30.5452C19.867 33.8272 19.867 37.1291 19.867 40.4111C19.8869 41.0515 19.6682 41.7119 19.2508 42.2122C18.893 42.6524 18.3961 42.9126 17.8992 43.1527C16.8656 43.673 15.7724 44.0533 14.699 44.4735C14.7189 44.9538 14.5997 45.4741 14.2618 45.8343C13.8046 46.3746 13.0095 46.5547 12.3735 46.3146C11.7374 46.0945 11.2802 45.4541 11.2604 44.7737C11.2206 44.1733 11.5188 43.573 12.0157 43.2528C12.5524 42.8926 13.2878 42.8525 13.8443 43.1927C14.1027 43.3328 14.3015 43.573 14.4804 43.8131C15.7128 43.3128 17.0047 42.8926 18.1576 42.2122C18.7738 41.872 19.1912 41.1916 19.1713 40.4911C19.1713 37.1491 19.1713 33.8072 19.1713 30.4652C19.1713 30.165 19.1316 29.8048 18.8732 29.6047C18.6148 29.4045 18.257 29.4045 17.939 29.3845C17.124 29.3645 16.3091 29.3445 15.4742 29.3445C15.4742 29.1244 15.4544 28.8842 15.4146 28.6441ZM12.7313 44.2334C12.4132 44.3734 12.3536 44.8737 12.6319 45.0939C12.9101 45.354 13.4071 45.1539 13.4468 44.7737C13.5263 44.3935 13.0692 44.0533 12.7313 44.2334Z" fill="white"/>
<path d="M30.7198 29.0648C31.1571 28.7246 31.7336 28.6845 32.2702 28.6645C33.0653 28.6445 33.8604 28.6245 34.6356 28.6445C34.5958 28.8847 34.5759 29.1248 34.5958 29.3649C33.761 29.3649 32.9262 29.385 32.0913 29.405C31.7534 29.425 31.3956 29.445 31.1174 29.6651C30.8789 29.8853 30.859 30.2455 30.859 30.5457C30.859 33.8676 30.859 37.1696 30.859 40.4916C30.859 41.0719 31.1372 41.6523 31.5944 42.0125C31.9124 42.2726 32.2901 42.4527 32.6479 42.6328C33.602 43.0731 34.5759 43.4333 35.5499 43.8135C35.7884 43.4733 36.1064 43.1732 36.504 43.0531C37.14 42.833 37.9152 43.0331 38.3525 43.5734C38.7699 44.0537 38.8892 44.7741 38.6507 45.3745C38.3923 46.0149 37.7363 46.4751 37.0605 46.4551C36.3847 46.4751 35.7487 46.0349 35.4704 45.4345C35.3312 45.1543 35.3114 44.8342 35.3114 44.514C34.3573 44.1337 33.4032 43.7935 32.469 43.3533C31.8926 43.0731 31.3161 42.813 30.859 42.3527C30.3819 41.8724 30.1235 41.192 30.1235 40.5116C30.1235 37.1696 30.1235 33.8276 30.1235 30.4856C30.1832 29.9653 30.3024 29.405 30.7198 29.0648ZM36.8617 44.2338C36.5238 44.3739 36.4642 44.8742 36.7624 45.0943C37.0406 45.3545 37.5376 45.1543 37.5773 44.7741C37.6568 44.3939 37.2195 44.0537 36.8617 44.2338Z" fill="white"/>
<path d="M63.588 34V23.8418H65.2341V34H63.588ZM68.9942 34H67.3778V26.5852H68.9794V27.045C69.7011 26.6297 70.3832 26.4221 71.0259 26.4221C72.0145 26.4221 72.6868 26.7039 73.0427 27.2674C73.4085 27.821 73.5914 28.7405 73.5914 30.0257V34H71.9898V30.0702C71.9898 29.2694 71.9008 28.7009 71.7228 28.3648C71.5548 28.0286 71.2038 27.8606 70.6699 27.8606C70.1657 27.8606 69.6813 27.9594 69.2167 28.1572L68.9942 28.2461V34ZM77.4159 27.9644V34H75.8143V27.9644H74.9542V26.5852H75.8143V26.1107C75.8143 25.0529 75.9675 24.3262 76.274 23.9308C76.5805 23.5353 77.1242 23.3376 77.9052 23.3376L79.5068 23.4859L79.492 24.8057C79.0076 24.7859 78.6022 24.776 78.276 24.776C77.9596 24.776 77.7372 24.8749 77.6087 25.0726C77.4801 25.2605 77.4159 25.6114 77.4159 26.1255V26.5852H79.3734V27.9644H77.4159ZM80.9133 27.386C81.4274 26.7434 82.2776 26.4221 83.464 26.4221C84.6504 26.4221 85.4956 26.7434 85.9998 27.386C86.5139 28.0286 86.771 28.9926 86.771 30.2778C86.771 31.563 86.5238 32.5319 86.0295 33.1844C85.5352 33.8369 84.68 34.1631 83.464 34.1631C82.248 34.1631 81.3928 33.8369 80.8985 33.1844C80.4042 32.5319 80.157 31.563 80.157 30.2778C80.157 28.9926 80.4091 28.0286 80.9133 27.386ZM82.1293 32.2056C82.3567 32.6011 82.8016 32.7988 83.464 32.7988C84.1264 32.7988 84.5713 32.6011 84.7987 32.2056C85.026 31.8102 85.1397 31.1626 85.1397 30.263C85.1397 29.3633 85.0162 28.7256 84.769 28.35C84.5317 27.9743 84.0967 27.7864 83.464 27.7864C82.8313 27.7864 82.3913 27.9743 82.1442 28.35C81.9069 28.7256 81.7883 29.3633 81.7883 30.263C81.7883 31.1626 81.902 31.8102 82.1293 32.2056ZM91.9802 34.1631C90.4972 34.1631 89.4888 33.7528 88.955 32.9323C88.431 32.1117 88.169 30.7622 88.169 28.8838C88.169 27.0054 88.4359 25.6708 88.9698 24.8798C89.5037 24.079 90.5071 23.6787 91.9802 23.6787C92.8601 23.6787 93.8289 23.8022 94.8868 24.0494L94.8275 25.384C93.9377 25.2259 93.0479 25.1468 92.1582 25.1468C91.2684 25.1468 90.6653 25.4137 90.349 25.9476C90.0326 26.4715 89.8744 27.4651 89.8744 28.9283C89.8744 30.3816 90.0276 31.3752 90.3341 31.909C90.6406 32.433 91.2387 32.695 92.1285 32.695C93.0183 32.695 93.9179 32.6209 94.8275 32.4726L94.872 33.8369C93.8537 34.0544 92.8897 34.1631 91.9802 34.1631ZM101.93 28.869V32.2501C101.94 32.4676 101.994 32.6307 102.093 32.7395C102.202 32.8384 102.365 32.9026 102.582 32.9323L102.538 34.1631C101.688 34.1631 101.03 33.9802 100.566 33.6144C99.7748 33.9802 98.9789 34.1631 98.1781 34.1631C96.7051 34.1631 95.9685 33.3772 95.9685 31.8052C95.9685 31.0539 96.1663 30.5101 96.5617 30.174C96.967 29.8378 97.5849 29.6352 98.4154 29.566L100.328 29.4028V28.869C100.328 28.4735 100.239 28.1967 100.061 28.0385C99.8934 27.8804 99.6413 27.8013 99.3052 27.8013C98.6724 27.8013 97.8815 27.8408 96.9324 27.9199L96.4579 27.9496L96.3986 26.8077C97.4762 26.5506 98.4648 26.4221 99.3645 26.4221C100.274 26.4221 100.927 26.6198 101.322 27.0153C101.727 27.4009 101.93 28.0188 101.93 28.869ZM98.6082 30.7078C97.926 30.7672 97.5849 31.1379 97.5849 31.8201C97.5849 32.5022 97.8865 32.8433 98.4895 32.8433C98.9839 32.8433 99.5078 32.7642 100.061 32.606L100.328 32.517V30.5447L98.6082 30.7078ZM105.576 34H103.959V26.5852H105.561V27.045C106.263 26.6297 106.905 26.4221 107.489 26.4221C108.349 26.4221 108.977 26.6643 109.372 27.1488C110.272 26.6643 111.166 26.4221 112.056 26.4221C112.946 26.4221 113.574 26.6989 113.939 27.2526C114.305 27.7963 114.488 28.7207 114.488 30.0257V34H112.887V30.0702C112.887 29.2694 112.803 28.7009 112.634 28.3648C112.476 28.0286 112.14 27.8606 111.626 27.8606C111.181 27.8606 110.702 27.9594 110.188 28.1572L109.936 28.261C110.015 28.4587 110.054 29.0914 110.054 30.1592V34H108.453V30.1888C108.453 29.3089 108.373 28.7009 108.215 28.3648C108.057 28.0286 107.711 27.8606 107.177 27.8606C106.683 27.8606 106.223 27.9594 105.798 28.1572L105.576 28.2461V34ZM121.664 32.6653L122.079 32.6209L122.109 33.822C120.982 34.0494 119.983 34.1631 119.113 34.1631C118.016 34.1631 117.225 33.8616 116.741 33.2585C116.266 32.6555 116.029 31.6915 116.029 30.3668C116.029 27.737 117.101 26.4221 119.247 26.4221C121.323 26.4221 122.361 27.5541 122.361 29.8181L122.257 30.9748H117.66C117.67 31.5877 117.803 32.0376 118.06 32.3243C118.318 32.611 118.797 32.7543 119.499 32.7543C120.201 32.7543 120.923 32.7247 121.664 32.6653ZM120.774 29.7291C120.774 28.9975 120.656 28.4884 120.418 28.2017C120.191 27.9051 119.8 27.7568 119.247 27.7568C118.693 27.7568 118.288 27.91 118.031 28.2165C117.784 28.523 117.655 29.0272 117.645 29.7291H120.774ZM123.915 34V26.5852H125.517V27.475C126.357 26.9313 127.198 26.5803 128.038 26.4221V28.0385C127.188 28.2066 126.461 28.4241 125.858 28.691L125.532 28.8245V34H123.915ZM134.495 32.6653L134.91 32.6209L134.94 33.822C133.813 34.0494 132.814 34.1631 131.944 34.1631C130.847 34.1631 130.056 33.8616 129.572 33.2585C129.097 32.6555 128.86 31.6915 128.86 30.3668C128.86 27.737 129.933 26.4221 132.078 26.4221C134.154 26.4221 135.192 27.5541 135.192 29.8181L135.088 30.9748H130.491C130.501 31.5877 130.634 32.0376 130.891 32.3243C131.149 32.611 131.628 32.7543 132.33 32.7543C133.032 32.7543 133.754 32.7247 134.495 32.6653ZM133.605 29.7291C133.605 28.9975 133.487 28.4884 133.249 28.2017C133.022 27.9051 132.631 27.7568 132.078 27.7568C131.524 27.7568 131.119 27.91 130.862 28.2165C130.615 28.523 130.486 29.0272 130.476 29.7291H133.605ZM143.89 34.1631C142.348 34.1631 141.27 33.7479 140.657 32.9174C140.054 32.087 139.753 30.7771 139.753 28.9876C139.753 27.1883 140.059 25.8536 140.672 24.9836C141.295 24.1137 142.368 23.6787 143.89 23.6787C145.413 23.6787 146.48 24.1137 147.093 24.9836C147.706 25.8438 148.013 27.1735 148.013 28.9728C148.013 30.1592 147.884 31.1181 147.627 31.8497C147.38 32.5813 146.97 33.1399 146.396 33.5255L147.642 35.5274L146.115 36.2393L144.795 34.0741C144.607 34.1335 144.305 34.1631 143.89 34.1631ZM141.962 31.8645C142.298 32.438 142.941 32.7247 143.89 32.7247C144.839 32.7247 145.477 32.4429 145.803 31.8794C146.139 31.306 146.307 30.3421 146.307 28.9876C146.307 27.6332 146.134 26.6495 145.788 26.0365C145.452 25.4236 144.819 25.1171 143.89 25.1171C142.961 25.1171 142.323 25.4236 141.977 26.0365C141.631 26.6495 141.458 27.6282 141.458 28.9728C141.458 30.3173 141.626 31.2813 141.962 31.8645ZM148.762 25.3099V23.8418H156.177V25.3099H153.315V34H151.654V25.3099H148.762ZM160.528 25.1171C159.272 25.1171 158.644 25.5571 158.644 26.4369C158.644 26.8917 158.793 27.218 159.089 27.4157C159.386 27.6035 160.038 27.8408 161.047 28.1275C162.065 28.4043 162.782 28.7405 163.197 29.1359C163.612 29.5215 163.82 30.1344 163.82 30.9748C163.82 32.0425 163.513 32.8433 162.9 33.3772C162.297 33.9011 161.472 34.1631 160.424 34.1631C159.584 34.1631 158.654 34.0643 157.636 33.8665L157.102 33.7627L157.265 32.4429C158.6 32.6209 159.618 32.7098 160.32 32.7098C161.546 32.7098 162.159 32.1661 162.159 31.0786C162.159 30.6535 162.021 30.3421 161.744 30.1443C161.467 29.9367 160.844 29.7143 159.875 29.477C158.906 29.2298 158.185 28.8937 157.71 28.4686C157.236 28.0435 156.998 27.3712 156.998 26.4518C156.998 25.5323 157.295 24.8403 157.888 24.3756C158.491 23.9011 159.322 23.6638 160.379 23.6638C161.141 23.6638 162.04 23.7528 163.078 23.9308L163.597 24.0197L163.464 25.3544C162.08 25.1962 161.101 25.1171 160.528 25.1171ZM169.321 30.8413H167.245V34H165.599V23.8418H169.321C171.625 23.8418 172.776 24.9787 172.776 27.2526C172.776 28.4192 172.485 29.3089 171.901 29.9219C171.328 30.5348 170.468 30.8413 169.321 30.8413ZM167.245 29.4177H169.306C170.493 29.4177 171.086 28.696 171.086 27.2526C171.086 26.5605 170.943 26.0563 170.656 25.74C170.369 25.4236 169.919 25.2654 169.306 25.2654H167.245V29.4177Z" fill="white"/>
</svg>
