<svg width="188" height="35" viewBox="0 0 188 35" fill="none" xmlns="http://www.w3.org/2000/svg">
<g clip-path="url(#clip0)">
<path d="M17.8947 14.5288C18.3754 14.5288 18.819 14.6767 19.2257 14.8985L20.113 13.4197C19.4475 13.013 18.6711 12.8281 17.8947 12.8281C15.4546 12.8281 13.4951 14.7876 13.4951 17.2277C13.4951 19.6678 15.4546 21.6273 17.8947 21.6273C18.6711 21.6273 19.4106 21.4425 20.076 21.0358L19.2257 19.483C18.819 19.7048 18.3754 19.8527 17.8947 19.8527C16.4159 19.8527 15.2328 18.6326 15.2328 17.1908C15.1958 15.7119 16.4159 14.5288 17.8947 14.5288Z" fill="white"/>
<path d="M28.5056 14.5288C28.9862 14.5288 29.4299 14.6767 29.8365 14.8985L30.7239 13.4197C30.0584 13.013 29.282 12.8281 28.5056 12.8281C26.0654 12.8281 24.106 14.7876 24.106 17.2277C24.106 19.6678 26.0654 21.6273 28.5056 21.6273C29.282 21.6273 30.0214 21.4425 30.6869 21.0358L29.8365 19.52C29.4299 19.7418 28.9862 19.8897 28.5056 19.8897C27.0267 19.8897 25.8436 18.6696 25.8436 17.2277C25.8436 15.7119 27.0267 14.5288 28.5056 14.5288Z" fill="white"/>
<path d="M30.1319 9.46484C29.3555 9.46484 28.616 9.6497 27.9505 10.0564L28.8009 11.5722C29.2076 11.3504 29.6512 11.2025 30.1319 11.2025C31.6107 11.2025 32.7938 12.4226 32.7938 13.8645C32.7938 15.3433 31.6107 16.5264 30.1319 16.5264C29.6512 16.5264 29.2076 16.3785 28.8009 16.1567L27.9136 17.6355C28.5791 18.0422 29.3555 18.2271 30.1319 18.2271C32.572 18.2271 34.5315 16.2676 34.5315 13.8275C34.5315 11.4243 32.535 9.46484 30.1319 9.46484Z" fill="white"/>
<path d="M21.5538 24.6212C22.1823 24.2515 22.8847 24.1775 23.5872 24.3624C24.2897 24.5472 24.8442 24.9909 25.2139 25.6194C25.4358 26.0261 25.5837 26.4698 25.5837 26.9504H27.3213C27.3213 26.174 27.1365 25.3976 26.7298 24.7321C26.1382 23.6969 25.177 22.9944 24.0678 22.6987C22.9217 22.4029 21.7386 22.5508 20.7404 23.1423C19.7052 23.7339 19.0027 24.6582 18.707 25.8043C18.4112 26.9504 18.5591 28.1335 19.1506 29.1687C19.5203 29.8342 20.0749 30.3887 20.7404 30.7584L21.5907 29.2796C21.1841 29.0578 20.8513 28.725 20.6295 28.3183C20.2598 27.6898 20.1858 26.9874 20.3707 26.2849C20.5186 25.5455 20.9622 24.9909 21.5538 24.6212Z" fill="white"/>
<path d="M28.8004 22.8496L27.9131 24.3654C28.3197 24.5873 28.6525 24.92 28.8743 25.3267C29.6137 26.6207 29.1701 28.2474 27.9131 28.9869C27.2845 29.3196 26.5821 29.4305 25.8796 29.2457C25.1772 29.0608 24.6226 28.6172 24.2529 27.9886C24.0311 27.582 23.8832 27.1013 23.8832 26.6577H22.1455C22.1455 27.4341 22.3304 28.2105 22.7371 28.876C23.5504 30.2809 25.0293 31.0573 26.5451 31.0573C27.2845 31.0573 28.0609 30.8724 28.7264 30.4657C30.8338 29.2457 31.5363 26.5468 30.3532 24.4394C30.0204 23.8109 29.4659 23.2563 28.8004 22.8496Z" fill="white"/>
<path d="M12.9772 24.6616C13.6057 24.9943 14.0493 25.5859 14.2342 26.2883C14.4191 26.9908 14.3081 27.6933 13.9754 28.3218C13.7536 28.7285 13.3838 29.0612 12.9772 29.283L13.8275 30.7989C14.493 30.3922 15.0476 29.8376 15.4543 29.1721C16.0458 28.1739 16.1937 26.9908 15.8979 25.8447C15.6021 24.6986 14.8627 23.7743 13.8645 23.1827C11.7571 21.9627 9.05818 22.7021 7.83813 24.8095C7.46841 25.475 7.24658 26.2144 7.24658 26.9908H8.98424C8.98424 26.5102 9.09516 26.0665 9.35396 25.6598C10.0934 24.3658 11.7201 23.9222 12.9772 24.6616Z" fill="white"/>
<path d="M16.0456 31.3498C15.6759 31.9784 15.1213 32.422 14.4188 32.6069C13.7164 32.7917 13.0139 32.7178 12.3854 32.3481C11.7569 31.9783 11.3132 31.4238 11.1284 30.7213C10.9435 30.0189 11.0544 29.3164 11.3872 28.6879C11.609 28.2812 11.9787 27.9485 12.3854 27.6897L11.5351 26.1738C10.8696 26.5435 10.315 27.1351 9.90832 27.8006C8.68826 29.9079 9.42769 32.6069 11.5351 33.8269C12.2006 34.2336 12.977 34.4185 13.7164 34.4185C14.0861 34.4185 14.4928 34.3815 14.8625 34.2706C16.0086 33.9748 16.9329 33.2354 17.5244 32.2002C17.8942 31.5347 18.116 30.7953 18.116 30.0189H16.3783C16.4153 30.4995 16.2674 30.9431 16.0456 31.3498Z" fill="white"/>
<path d="M6.02639 19.8897C5.54576 19.8897 5.10211 19.7418 4.69542 19.52L3.80811 21.0358C4.47359 21.4425 5.24999 21.6273 6.02639 21.6273C7.20948 21.6273 8.31863 21.1837 9.132 20.3333C9.98234 19.52 10.426 18.4108 10.426 17.2277C10.426 14.7876 8.46651 12.8281 6.02639 12.8281C5.24999 12.8281 4.51056 13.013 3.84508 13.4197L4.69542 14.9355C5.10211 14.7137 5.54576 14.5658 6.02639 14.5658C7.50525 14.5658 8.68834 15.7858 8.68834 17.2277C8.68834 17.9302 8.42954 18.5957 7.91194 19.1133C7.39434 19.6309 6.72885 19.8897 6.02639 19.8897Z" fill="white"/>
<path d="M4.39961 23.2184C2.92075 23.2184 1.73766 22.0354 1.73766 20.5565C1.73766 19.0776 2.92075 17.8946 4.39961 17.8946C4.88024 17.8946 5.32389 18.0055 5.73058 18.2643L6.6179 16.7854C5.95241 16.3787 5.17601 16.1939 4.39961 16.1939C1.99646 16.1569 0 18.1534 0 20.5565C0 22.9966 1.99646 24.9561 4.39961 24.9561C5.17601 24.9561 5.91544 24.7712 6.58092 24.3646L5.73058 22.8487C5.32389 23.1075 4.88024 23.2184 4.39961 23.2184Z" fill="white"/>
<path d="M12.9394 9.79547C12.3109 10.1652 11.6085 10.2391 10.906 10.0543C10.2035 9.86941 9.64897 9.42575 9.27925 8.79724C9.05742 8.39055 8.90954 7.9469 8.90954 7.46627H7.17188C7.17188 8.24267 7.35673 9.01907 7.76342 9.68456C8.35496 10.7198 9.31622 11.4222 10.4254 11.718C10.7951 11.8289 11.2018 11.8659 11.5715 11.8659C12.3479 11.8659 13.0873 11.644 13.7528 11.2743C15.8602 10.0543 16.5626 7.35535 15.3426 5.24798C14.9729 4.58249 14.4183 4.02792 13.7528 3.6582L12.9394 5.17403C13.3461 5.39586 13.6789 5.72861 13.9007 6.13529C14.6771 7.42929 14.2334 9.05604 12.9394 9.79547Z" fill="white"/>
<path d="M5.73114 11.5719L6.58148 10.0561C6.1748 9.83429 5.84205 9.50154 5.62023 9.09486C4.8808 7.80085 5.32445 6.17411 6.58148 5.43468C7.83851 4.69525 9.50223 5.13891 10.2417 6.43291C10.4635 6.83959 10.6114 7.28325 10.6114 7.76388H12.349C12.349 6.98748 12.1642 6.21108 11.7575 5.54559C10.5374 3.43822 7.83851 2.73576 5.73114 3.95582C3.62377 5.17588 2.92131 7.8748 4.14137 9.98217C4.51108 10.6107 5.06565 11.1653 5.73114 11.5719Z" fill="white"/>
<path d="M21.5174 9.76031C20.8888 9.42757 20.4452 8.83603 20.2603 8.13357C20.0755 7.43111 20.1864 6.72865 20.5191 6.10014C20.741 5.69345 21.1107 5.36071 21.5174 5.13888L20.667 3.62305C20.0015 4.02973 19.447 4.58431 19.0403 5.24979C18.4487 6.24802 18.3008 7.43111 18.5966 8.57723C18.8924 9.72334 19.6318 10.6476 20.63 11.2761C21.3325 11.6828 22.0719 11.8677 22.8114 11.8677C24.3272 11.8677 25.8061 11.0913 26.6194 9.6494C26.9891 8.98391 27.211 8.24448 27.211 7.46808H25.4733C25.4733 7.94871 25.3624 8.39237 25.1036 8.79905C24.4381 10.0561 22.8114 10.4997 21.5174 9.76031Z" fill="white"/>
<path d="M18.4853 3.06856C19.2247 1.77455 20.8515 1.36787 22.1455 2.1073C22.774 2.47701 23.2177 3.03158 23.4025 3.73404C23.5874 4.4365 23.4765 5.13896 23.1437 5.76747C22.9219 6.17416 22.5522 6.5069 22.1455 6.7657L22.9958 8.28154C23.6613 7.91182 24.2159 7.32028 24.6226 6.65479C25.2141 5.65656 25.362 4.4365 25.0662 3.32736C24.7705 2.18124 24.031 1.25695 22.9958 0.665409C20.8885 -0.55465 18.1895 0.147808 16.9695 2.29215C16.5998 2.95764 16.3779 3.69707 16.3779 4.47347H18.1156C18.1156 3.9189 18.2265 3.47524 18.4853 3.06856Z" fill="white"/>
<path d="M45.6604 3.4375H44.8101V30.9443H45.6604V3.4375Z" fill="white"/>
<path d="M55.4199 11.3495C55.4199 8.79848 57.0097 7.13477 59.6347 7.13477C60.8178 7.13477 61.5202 7.35659 62.0378 7.6154L61.6681 8.53968C61.0396 8.31785 60.559 8.16997 59.6347 8.16997C58.0079 8.16997 56.64 9.05728 56.64 11.2016C56.64 13.4199 58.0449 14.3812 59.8565 14.3812C60.6329 14.3812 61.1875 14.2703 61.742 14.0854L62.0378 15.0467C61.4463 15.2685 60.7808 15.4533 59.6716 15.4533C56.9358 15.4903 55.4199 13.8266 55.4199 11.3495Z" fill="white"/>
<path d="M65.3653 7.24805H66.9551L69.8389 15.3448H68.5079L67.5097 12.535H64.441L63.3319 15.3448H62.1118L65.3653 7.24805ZM67.2509 11.5737L66.1047 8.09839L64.8477 11.5737H67.2509V11.5737Z" fill="white"/>
<path d="M70.7256 7.24805H72.3154L74.9403 14.4575L77.8981 7.24805H79.4139V15.3448H78.1938V10.6125L78.2308 9.17056H78.1938L75.7167 15.3448H74.127L71.9456 9.17056H71.9087L71.9826 10.5015V15.3448H70.7256V7.24805Z" fill="white"/>
<path d="M81.2998 7.24805H86.0691V8.24628H82.5568V10.7973H85.8103V11.7586H82.5568V14.3466H86.3279V15.3448H81.2998V7.24805Z" fill="white"/>
<path d="M91.6521 13.7181L90.543 12.2022C90.3581 12.2392 90.0993 12.2392 89.8775 12.2392H88.9162V15.3448H87.6592V7.24805H90.432C92.0588 7.24805 93.2049 8.02445 93.2049 9.68816C93.2049 10.6125 92.7612 11.4628 91.726 11.9065L92.7243 13.2374C93.2419 13.8659 93.7225 14.3096 94.4989 14.5314L94.2401 15.4927C93.131 15.3818 92.3915 14.6793 91.6521 13.7181ZM89.9514 11.3149C91.1715 11.3149 91.9479 10.9082 91.9479 9.76211C91.9479 8.65296 91.3933 8.24628 90.2102 8.24628H88.9162V11.3149H89.9514V11.3149Z" fill="white"/>
<path d="M95.3862 7.24805H100.156V8.24628H96.6433V10.7973H99.8968V11.7586H96.6433V14.3466H100.414V15.3448H95.3862V7.24805Z" fill="white"/>
<path d="M104.222 7.24805H106.625C109.287 7.24805 111.209 8.46811 111.209 11.2779C111.209 14.0878 109.472 15.3448 106.699 15.3448H104.222V7.24805ZM106.81 14.3466C108.843 14.3466 109.952 13.3483 109.952 11.3889C109.952 9.24451 108.695 8.24628 106.588 8.24628H105.479V14.3466H106.81Z" fill="white"/>
<path d="M113.798 7.24805H112.578V15.3448H113.798V7.24805Z" fill="white"/>
<path d="M117.643 11.3495C117.643 8.79848 119.233 7.13477 121.858 7.13477C123.041 7.13477 123.743 7.35659 124.261 7.6154L123.891 8.53968C123.263 8.31785 122.782 8.16997 121.858 8.16997C120.231 8.16997 118.863 9.05728 118.863 11.2016C118.863 13.4199 120.268 14.3812 122.08 14.3812C122.856 14.3812 123.448 14.2703 123.965 14.0854L124.261 15.0467C123.669 15.2685 123.004 15.4533 121.895 15.4533C119.159 15.4903 117.643 13.8266 117.643 11.3495Z" fill="white"/>
<path d="M124.926 11.2756C124.926 8.72454 126.589 7.13477 129.141 7.13477C131.839 7.13477 133.207 8.9094 133.207 11.3125C133.207 13.8266 131.655 15.4903 128.993 15.4903C126.331 15.4903 124.926 13.7896 124.926 11.2756ZM131.913 11.3125C131.913 9.50094 130.915 8.16997 129.03 8.16997C127.07 8.16997 126.109 9.53791 126.109 11.3125C126.109 13.0502 126.996 14.5291 128.919 14.5291C131.026 14.4921 131.913 13.0872 131.913 11.3125Z" fill="white"/>
<path d="M134.539 7.24805H136.128L138.753 14.4575L141.711 7.24805H143.227V15.3448H142.007V10.6125L142.044 9.17056H142.007L139.53 15.3448H137.903L135.759 9.17056H135.685L135.796 10.5015V15.3448H134.539V7.24805Z" fill="white"/>
<path d="M145.113 7.24805H146.703L149.328 14.4575L152.285 7.24805H153.764V15.3448H152.544V10.6125L152.618 9.17056H152.581L150.067 15.3448H148.477L146.296 9.17056H146.259L146.333 10.5015V15.3448H145.113V7.24805Z" fill="white"/>
<path d="M155.687 7.24805H160.419V8.24628H156.907V10.7973H160.198V11.7586H156.907V14.3466H160.678V15.3448H155.687V7.24805Z" fill="white"/>
<path d="M166.038 13.7181L164.929 12.2022C164.744 12.2392 164.486 12.2392 164.264 12.2392H163.302V15.3448H162.045V7.24805H164.818C166.445 7.24805 167.591 8.02445 167.591 9.68816C167.591 10.6125 167.147 11.4628 166.112 11.9065L167.111 13.2374C167.628 13.8659 168.109 14.3096 168.885 14.5314L168.626 15.4927C167.517 15.3818 166.778 14.6793 166.038 13.7181ZM164.301 11.3149C165.521 11.3149 166.297 10.9082 166.297 9.76211C166.297 8.65296 165.743 8.24628 164.559 8.24628H163.265V11.3149H164.301V11.3149Z" fill="white"/>
<path d="M169.255 11.3495C169.255 8.79848 170.845 7.13477 173.47 7.13477C174.653 7.13477 175.355 7.35659 175.873 7.6154L175.503 8.53968C174.875 8.31785 174.394 8.16997 173.47 8.16997C171.843 8.16997 170.475 9.05728 170.475 11.2016C170.475 13.4199 171.88 14.3812 173.691 14.3812C174.468 14.3812 175.022 14.2703 175.577 14.0854L175.873 15.0467C175.281 15.2685 174.616 15.4533 173.507 15.4533C170.771 15.4903 169.255 13.8266 169.255 11.3495Z" fill="white"/>
<path d="M178.35 7.24805H177.13V15.3448H178.35V7.24805Z" fill="white"/>
<path d="M179.718 11.2756C179.718 8.72454 181.382 7.13477 183.933 7.13477C186.632 7.13477 188 8.9094 188 11.3125C188 13.8266 186.447 15.4903 183.785 15.4903C181.16 15.4903 179.718 13.7896 179.718 11.2756ZM186.743 11.3125C186.743 9.50094 185.745 8.16997 183.859 8.16997C181.9 8.16997 180.938 9.53791 180.938 11.3125C180.938 13.0502 181.826 14.5291 183.748 14.5291C185.856 14.4921 186.743 13.0872 186.743 11.3125Z" fill="white"/>
<path d="M55.9375 19.2656H58.3406C61.0026 19.2656 62.9251 20.4857 62.9251 23.2955C62.9251 26.1054 61.1874 27.3624 58.4146 27.3624H55.9375V19.2656V19.2656ZM58.5255 26.3642C60.5589 26.3642 61.6681 25.3659 61.6681 23.4064C61.6681 21.2621 60.411 20.2639 58.3037 20.2639H57.1945V26.3642H58.5255Z" fill="white"/>
<path d="M63.9602 19.8163V18.7441H64.9954V19.4096C64.9954 20.26 64.7736 20.8145 64.4408 21.2952H63.6274C63.8493 20.8145 63.9602 20.186 63.9602 19.8163Z" fill="white"/>
<path d="M67.4359 19.2656H66.2158V27.3624H67.4359V19.2656Z" fill="white"/>
<path d="M70.9841 20.2639H68.2852V19.2656H74.94V20.2639H72.2411V27.3624H70.9841V20.2639Z" fill="white"/>
<path d="M77.3808 19.2656H78.9706L81.8543 27.3624H80.5234L79.5251 24.5525H76.4565L75.3474 27.3624H74.0903L77.3808 19.2656ZM79.2294 23.5913L78.0833 20.116L76.8262 23.5913H79.2294Z" fill="white"/>
<path d="M82.7417 19.2656H83.9618V26.3272H87.4741V27.3624H82.7417V19.2656Z" fill="white"/>
<path d="M89.5443 19.2656H88.3242V27.3624H89.5443V19.2656Z" fill="white"/>
<path d="M93.5375 19.2656H95.1273L98.0111 27.3624H96.6801L95.6819 24.5525H92.6132L91.5041 27.3624H90.2471L93.5375 19.2656ZM95.3861 23.5913L94.24 20.116L92.983 23.5913H95.3861Z" fill="white"/>
</g>
<defs>
<clipPath id="clip0">
<rect width="188" height="34.4204" fill="white"/>
</clipPath>
</defs>
</svg>
