<svg width="305" height="90" viewBox="0 0 305 90" fill="none" xmlns="http://www.w3.org/2000/svg">
<path fill-rule="evenodd" clip-rule="evenodd" d="M30.7038 0.139932C32.3766 -0.345875 34.3067 0.528578 35.0465 2.11555C35.8186 3.63774 35.3682 5.64575 34.0493 6.68213C32.8591 7.68614 31.0255 7.7833 29.7388 6.94123C28.4198 6.13155 27.7121 4.41503 28.0982 2.89284C28.3555 1.56497 29.3849 0.463803 30.7038 0.139932Z" fill="#0F54A2"/>
<path fill-rule="evenodd" clip-rule="evenodd" d="M48.3323 0.140742C49.9729 -0.345065 51.8708 0.464614 52.6429 1.98681C53.5114 3.509 53.0611 5.61417 51.6778 6.68295C50.4876 7.65456 48.7183 7.75172 47.4316 6.94204C46.177 6.19714 45.4693 4.67494 45.6623 3.24991C45.8232 1.82487 46.9169 0.529388 48.3323 0.140742Z" fill="#0F54A2"/>
<path fill-rule="evenodd" clip-rule="evenodd" d="M39.9043 2.73188C41.9631 2.34323 44.0862 4.02736 44.1827 6.13253C44.4079 8.14053 42.7351 10.1161 40.7085 10.1809C38.8106 10.3752 36.9448 8.82066 36.7518 6.90982C36.4944 4.9342 37.9742 2.95859 39.9043 2.73188Z" fill="#0F54A2"/>
<path fill-rule="evenodd" clip-rule="evenodd" d="M24.1737 6.58607C25.9752 6.06788 28.0018 7.13665 28.613 8.91795C29.2885 10.6021 28.4843 12.7072 26.8759 13.5493C25.2996 14.4561 23.1122 13.938 22.0828 12.4158C20.9891 10.9259 21.2142 8.65885 22.5975 7.46052C23.08 7.03949 23.6269 6.74801 24.1737 6.58607Z" fill="#0F54A2"/>
<path fill-rule="evenodd" clip-rule="evenodd" d="M54.9586 6.58545C56.5027 6.16441 58.2398 6.87693 59.044 8.23719C59.8482 9.53267 59.7517 11.314 58.8188 12.4799C57.8216 13.8078 55.8915 14.326 54.3796 13.6458C52.8999 13.0305 51.967 11.4111 52.1278 9.82416C52.3208 8.30196 53.4789 6.9417 54.9586 6.58545Z" fill="#0F54A2"/>
<path fill-rule="evenodd" clip-rule="evenodd" d="M14.9733 8.36698C16.7104 7.78401 18.737 8.72324 19.4769 10.375C20.2811 12.0267 19.6056 14.1967 18.0293 15.1359C16.7426 15.9456 15.0055 15.8484 13.8153 14.9416C12.6894 14.0995 12.1425 12.6097 12.432 11.2494C12.6572 9.92156 13.6866 8.75562 14.9733 8.36698Z" fill="#0F54A2"/>
<path fill-rule="evenodd" clip-rule="evenodd" d="M63.7732 8.39972C65.253 7.88153 66.9901 8.4645 67.9229 9.7276C68.695 10.764 68.888 12.189 68.3733 13.3873C67.8908 14.5533 66.797 15.4601 65.5746 15.6544C63.6767 16.0431 61.6823 14.6828 61.2962 12.772C60.8459 10.9583 62.0039 8.9503 63.7732 8.39972Z" fill="#0F54A2"/>
<path fill-rule="evenodd" clip-rule="evenodd" d="M33.3737 9.14471C35.143 8.82084 37.0409 10.0192 37.5235 11.7681C38.0703 13.517 37.1696 15.5574 35.4969 16.2699C34.2423 16.8528 32.6339 16.6585 31.5723 15.7193C30.4143 14.7801 29.9317 13.0636 30.4143 11.6385C30.8324 10.343 32.0227 9.33904 33.3737 9.14471Z" fill="#0F54A2"/>
<path fill-rule="evenodd" clip-rule="evenodd" d="M46.2733 9.17694C48.2034 8.72352 50.2943 10.0514 50.6804 12.027C51.1951 14.035 49.7475 16.2373 47.7209 16.5612C45.7908 16.9822 43.6998 15.5572 43.3781 13.614C42.9599 11.6384 44.3432 9.5332 46.2733 9.17694Z" fill="#0F54A2"/>
<path fill-rule="evenodd" clip-rule="evenodd" d="M21.6004 15.2663C23.4662 14.8777 25.4606 16.1732 25.8788 18.0516C26.3291 19.7681 25.3641 21.7438 23.7235 22.4239C22.1151 23.1364 20.0885 22.521 19.1556 21.0312C18.4479 19.9949 18.3514 18.5698 18.8661 17.4363C19.3808 16.3027 20.4102 15.493 21.6004 15.2663Z" fill="#0F54A2"/>
<path fill-rule="evenodd" clip-rule="evenodd" d="M57.8861 15.3308C59.6553 14.8774 61.6498 15.9462 62.2288 17.6951C62.9365 19.444 62.0358 21.6463 60.2987 22.3912C58.6581 23.2009 56.5028 22.5532 55.5699 20.9986C54.8944 19.9298 54.8301 18.5372 55.3448 17.4036C55.8594 16.3672 56.7923 15.5575 57.8861 15.3308Z" fill="#0F54A2"/>
<path fill-rule="evenodd" clip-rule="evenodd" d="M38.9392 16.1069C40.4511 15.3944 42.3812 15.8478 43.4106 17.1757C44.5043 18.5035 44.4721 20.5439 43.4106 21.8718C42.8315 22.5843 41.9952 23.0701 41.0944 23.2321C40.7084 23.2644 40.2902 23.2644 39.9042 23.2321C38.328 23.0053 36.9769 21.6127 36.8161 19.9933C36.5587 18.4064 37.4916 16.7546 38.9392 16.1069Z" fill="#0F54A2"/>
<path fill-rule="evenodd" clip-rule="evenodd" d="M12.3035 17.1115C14.2336 16.561 16.4211 17.8888 16.8392 19.8645C17.3539 21.8077 16.0029 24.01 14.0406 24.3987C12.1105 24.8845 9.95522 23.4918 9.56919 21.5162C9.11884 19.6377 10.4056 17.5326 12.3035 17.1115Z" fill="#0F54A2"/>
<path fill-rule="evenodd" clip-rule="evenodd" d="M66.829 17.1124C68.5983 16.5942 70.5927 17.6306 71.2361 19.3471C71.9438 21.0313 71.2039 23.1688 69.5955 24.0109C68.0192 24.9501 65.7674 24.4319 64.7381 22.9097C63.6443 21.4199 63.8695 19.1528 65.2528 17.9545C65.7353 17.5658 66.2821 17.2744 66.829 17.1124Z" fill="#0F54A2"/>
<path fill-rule="evenodd" clip-rule="evenodd" d="M28.8702 18.8609C30.6072 18.0188 32.859 18.8285 33.6954 20.545C34.6283 22.2292 33.9527 24.561 32.28 25.5003C31.9261 25.6946 31.5723 25.8241 31.2184 25.9213C29.3848 26.3747 27.3261 25.1764 26.8114 23.3303C26.2645 21.6138 27.1974 19.5734 28.8702 18.8609Z" fill="#0F54A2"/>
<path fill-rule="evenodd" clip-rule="evenodd" d="M47.3352 20.4795C48.2037 18.7953 50.3912 18.0504 52.0961 18.8277C53.8654 19.5726 54.7983 21.7749 54.0906 23.5562C53.4794 25.3051 51.4849 26.3739 49.7156 25.9205C49.3296 25.8233 48.9758 25.6614 48.6541 25.4671C47.0135 24.4955 46.3701 22.1636 47.3352 20.4795Z" fill="#0F54A2"/>
<path fill-rule="evenodd" clip-rule="evenodd" d="M5.12981 22.844C6.89907 22.3582 8.89352 23.427 9.50472 25.1759C10.1481 26.86 9.37605 28.9328 7.79979 29.7748C6.51305 30.4874 4.80812 30.3578 3.68222 29.3862C2.52416 28.447 2.00946 26.7952 2.45982 25.4026C2.81368 24.1719 3.87524 23.1355 5.12981 22.844Z" fill="#0F54A2"/>
<path fill-rule="evenodd" clip-rule="evenodd" d="M73.8738 22.9092C75.6752 22.2614 77.8627 23.3302 78.506 25.1439C79.2137 26.8928 78.3452 29.0951 76.6081 29.8724C74.9353 30.7145 72.7479 30.0344 71.815 28.415C70.8178 26.8604 71.236 24.5933 72.7157 23.4922C73.0696 23.2654 73.4556 23.0711 73.8738 22.9092Z" fill="#0F54A2"/>
<path fill-rule="evenodd" clip-rule="evenodd" d="M20.7638 26.3753C21.761 25.3389 23.3694 24.9503 24.7205 25.4361C26.0394 25.8895 27.0366 27.185 27.1653 28.5776C27.2618 29.5816 26.9723 30.5856 26.3289 31.3629C26.0716 31.6544 25.7821 31.9135 25.4604 32.1402C23.9485 33.1442 21.761 32.788 20.603 31.3953C19.3806 30.0027 19.4449 27.7032 20.7638 26.3753Z" fill="#0F54A2"/>
<path fill-rule="evenodd" clip-rule="evenodd" d="M55.0875 26.1797C56.503 24.8518 58.9156 24.9166 60.2345 26.3416C61.5856 27.6695 61.6499 30.0338 60.3953 31.4264C59.2373 32.819 57.0498 33.1429 55.5379 32.1065C55.2162 31.8798 54.9267 31.6207 54.6693 31.3292C53.4469 29.8718 53.6078 27.4752 55.0875 26.1797Z" fill="#0F54A2"/>
<path fill-rule="evenodd" clip-rule="evenodd" d="M14.105 26.1478C15.9707 25.7915 17.9652 27.1194 18.3512 28.9979C18.8015 30.8115 17.7078 32.8195 15.9386 33.4025C14.2336 34.0179 12.1749 33.1758 11.4028 31.5564C10.856 30.52 10.856 29.2246 11.4028 28.1882C11.9175 27.087 12.9469 26.3421 14.105 26.1478Z" fill="#0F54A2"/>
<path fill-rule="evenodd" clip-rule="evenodd" d="M65.7032 26.1477C67.5047 25.8239 69.4026 26.9898 69.8851 28.7711C70.4642 30.5848 69.4348 32.7223 67.6655 33.3701C66.2501 33.953 64.513 33.4996 63.5158 32.3337C62.5508 31.2649 62.3256 29.6455 62.9046 28.3177C63.3871 27.1841 64.4809 26.3421 65.7032 26.1477Z" fill="#0F54A2"/>
<path fill-rule="evenodd" clip-rule="evenodd" d="M6.41686 32.0091C8.02528 31.5233 9.89104 32.2682 10.6953 33.758C11.4673 35.0859 11.3064 36.8996 10.2771 38.0655C9.21551 39.3286 7.31758 39.7496 5.83783 39.0047C4.39026 38.3246 3.48955 36.6405 3.74689 35.0211C3.97207 33.6285 5.06579 32.3978 6.41686 32.0091Z" fill="#0F54A2"/>
<path fill-rule="evenodd" clip-rule="evenodd" d="M72.4584 32.0422C74.3564 31.3944 76.576 32.5927 77.1229 34.536C77.7341 36.3497 76.7047 38.4872 74.9354 39.1349C73.2948 39.8475 71.2039 39.1026 70.3353 37.548C69.4346 36.0258 69.7884 33.8882 71.1717 32.7871C71.5255 32.4308 71.9759 32.2041 72.4584 32.0422Z" fill="#0F54A2"/>
<path fill-rule="evenodd" clip-rule="evenodd" d="M17.6434 34.5684C18.5441 33.694 19.8631 33.3377 21.0533 33.6292C22.3722 33.9207 23.4659 34.9895 23.8198 36.3173C24.0128 37.0298 23.9806 37.7747 23.7554 38.4549C23.6268 38.8111 23.4337 39.1674 23.2407 39.4913C22.2435 40.9163 20.2169 41.4345 18.6728 40.6896C17.5148 40.1714 16.6784 39.0055 16.5497 37.7424C16.3567 36.5764 16.8071 35.3781 17.6434 34.5684Z" fill="#0F54A2"/>
<path fill-rule="evenodd" clip-rule="evenodd" d="M57.9827 34.7949C59.1729 33.3699 61.4247 33.1108 62.9044 34.1796C64.352 35.1512 64.931 37.1592 64.2233 38.7462C63.6121 40.2684 61.9072 41.24 60.2666 40.9809C59.2694 40.8513 58.3365 40.2684 57.7575 39.4587C57.5323 39.1348 57.3715 38.7786 57.2428 38.4223C56.8568 37.1916 57.1463 35.7665 57.9827 34.7949Z" fill="#0F54A2"/>
<path fill-rule="evenodd" clip-rule="evenodd" d="M12.0463 39.3609C13.9764 38.7779 16.1961 40.1058 16.6143 42.0814C17.129 44.0247 15.8422 46.1946 13.9121 46.6156C11.9498 47.1662 9.76238 45.8059 9.37636 43.7979C8.89383 41.8871 10.1806 39.8143 12.0463 39.3609Z" fill="#0F54A2"/>
<path fill-rule="evenodd" clip-rule="evenodd" d="M67.2152 39.3296C68.7915 38.941 70.5286 39.7506 71.3006 41.1757C72.0727 42.5359 71.8475 44.3496 70.7859 45.4832C69.6922 46.7463 67.6978 47.1025 66.218 46.2605C64.8026 45.5156 64.0306 43.799 64.3522 42.2121C64.6418 40.8194 65.7998 39.6211 67.2152 39.3296Z" fill="#0F54A2"/>
<path fill-rule="evenodd" clip-rule="evenodd" d="M2.97477 40.3986C4.9692 39.9128 7.09232 41.3702 7.414 43.4106C7.83219 45.3862 6.32028 47.5238 4.32584 47.7829C2.36357 48.1715 0.336965 46.6493 0.0474495 44.6737C-0.274234 42.7629 1.07684 40.7549 2.97477 40.3986Z" fill="#0F54A2"/>
<path fill-rule="evenodd" clip-rule="evenodd" d="M76.4474 40.3988C78.281 39.9454 80.2755 41.0789 80.8223 42.8926C81.4335 44.6415 80.5006 46.7791 78.7957 47.4916C77.0908 48.3013 74.9034 47.5564 74.0348 45.8722C73.1019 44.2529 73.6166 42.0182 75.1607 40.9818C75.5146 40.7227 75.9649 40.5284 76.4474 40.3988Z" fill="#0F54A2"/>
<path fill-rule="evenodd" clip-rule="evenodd" d="M17.5794 47.5237C17.322 45.5804 18.834 43.6048 20.7962 43.4105C22.662 43.119 24.5921 44.4793 24.9459 46.3577C25.0103 46.7464 25.0103 47.135 25.0103 47.5237C24.8494 49.3697 23.1767 50.9243 21.3109 50.8919C19.4452 50.9243 17.7402 49.3697 17.5794 47.5237Z" fill="#0F54A2"/>
<path fill-rule="evenodd" clip-rule="evenodd" d="M56.0848 46.3578C56.4386 44.5118 58.3044 43.1515 60.1702 43.4106C62.1003 43.5725 63.6443 45.4834 63.4513 47.4266C63.3548 49.3698 61.5534 50.9892 59.6555 50.892C57.8219 50.892 56.1813 49.3698 56.0204 47.5238C55.9883 47.1351 56.0204 46.7465 56.0848 46.3578Z" fill="#0F54A2"/>
<path fill-rule="evenodd" clip-rule="evenodd" d="M8.34714 47.8469C10.0842 47.3935 12.0143 48.4299 12.6577 50.114C13.3654 51.7981 12.6255 53.9033 11.0171 54.7778C9.44086 55.717 7.25342 55.2312 6.19186 53.7414C5.38765 52.6726 5.22681 51.118 5.80584 49.9197C6.28837 48.8833 7.25342 48.106 8.34714 47.8469Z" fill="#0F54A2"/>
<path fill-rule="evenodd" clip-rule="evenodd" d="M71.1719 47.8152C73.0376 47.4265 75.0321 48.722 75.4502 50.6004C75.9328 52.4141 74.839 54.4869 73.0376 55.0699C71.3005 55.7176 69.1774 54.7784 68.4375 53.0619C67.6655 51.4425 68.2767 49.305 69.7886 48.3657C70.2068 48.0743 70.6893 47.9123 71.1719 47.8152Z" fill="#0F54A2"/>
<path d="M39.8719 23.2324C40.2579 23.2648 40.6761 23.2648 41.0621 23.2324C41.0621 43.6363 41.0621 64.0078 41.0621 84.4117C41.8342 84.606 42.5419 85.0918 42.9279 85.8367C43.5069 86.8731 43.3461 88.2334 42.5419 89.0755C41.7698 89.9499 40.4188 90.2414 39.3572 89.7556C38.1991 89.2698 37.4914 87.9743 37.6844 86.7436C37.8453 85.61 38.746 84.6708 39.8397 84.3793C39.8719 64.0078 39.8719 43.6363 39.8719 23.2324ZM40.2579 86.3873C39.6789 86.5169 39.4537 87.3266 39.8719 87.7152C40.2257 88.1686 41.03 88.0067 41.223 87.4885C41.5125 86.9055 40.8691 86.1606 40.2579 86.3873Z" fill="#495965"/>
<path d="M31.2188 25.921C31.6048 25.8239 31.9586 25.6619 32.2803 25.5C33.8566 29.3217 35.4328 33.1434 37.0091 36.965C37.4594 38.0338 37.942 39.1026 38.2315 40.2362C38.6175 41.5964 38.8105 42.9891 38.8105 44.3817C38.8105 53.4177 38.8105 62.4861 38.8105 71.5221C38.8105 72.3318 38.8427 73.2063 38.5853 73.9836C38.0706 75.6353 37.5559 77.287 37.0091 78.9388C37.5881 79.2627 38.0706 79.7161 38.328 80.3314C38.7783 81.3031 38.6175 82.5338 37.8776 83.3434C37.2986 84.0236 36.3335 84.4122 35.4328 84.2827C34.4999 84.1855 33.6314 83.5378 33.2132 82.6957C32.7307 81.6917 32.9237 80.4286 33.6636 79.6189C34.2104 78.9712 35.0146 78.6797 35.851 78.6473C36.237 77.3842 36.6231 76.1211 37.0412 74.8904C37.2986 74.0807 37.6524 73.271 37.6203 72.3966C37.6203 63.0043 37.6203 53.612 37.6203 44.2198C37.6203 42.4061 37.2343 40.56 36.5587 38.8759C34.8216 34.6332 33.0202 30.2933 31.2188 25.921ZM35.4328 80.8496C34.9181 81.1087 34.886 81.9184 35.3685 82.2423C35.851 82.6309 36.6552 82.2099 36.6552 81.5945C36.6874 80.9792 35.9475 80.4934 35.4328 80.8496Z" fill="#495965"/>
<path d="M48.6862 25.4668C49.0078 25.6611 49.3939 25.8231 49.7477 25.9202C48.1393 29.8391 46.5309 33.7579 44.9225 37.6767C44.5686 38.5512 44.1504 39.4256 43.8931 40.3649C43.507 41.6927 43.314 43.053 43.314 44.4457C43.314 53.5464 43.314 62.6148 43.314 71.7156C43.314 72.3957 43.2819 73.1083 43.507 73.756C44.0217 75.4077 44.5364 77.0919 45.0833 78.7436C45.8875 78.7436 46.7239 79.0675 47.2707 79.7152C48.1393 80.6869 48.2036 82.2738 47.3994 83.2778C46.6274 84.3466 45.0833 84.7029 43.9252 84.0875C42.8315 83.5693 42.1881 82.2738 42.4133 81.0755C42.542 80.1687 43.1532 79.4237 43.9574 79.0027C43.5714 77.772 43.1854 76.5413 42.7993 75.343C42.542 74.4361 42.156 73.5617 42.1881 72.6225C42.1881 63.8455 42.1881 55.0362 42.1881 46.2593C42.1881 45.0934 42.156 43.8951 42.2847 42.7291C42.4455 41.2717 42.8315 39.8143 43.3784 38.454C45.1155 34.1142 46.8847 29.8067 48.6862 25.4668ZM44.7294 80.8488C44.2469 81.1079 44.1504 81.8528 44.6008 82.209C45.0511 82.6301 45.8553 82.3062 45.9197 81.7232C46.0805 81.0431 45.2763 80.4925 44.7294 80.8488Z" fill="#495965"/>
<path d="M25.4282 32.1386C25.7499 31.9119 26.0394 31.6528 26.2968 31.3613C28.7737 34.1142 31.2185 36.8671 33.6955 39.6524C34.2102 40.2354 34.7892 40.8184 35.2074 41.4661C36.1081 42.794 36.5907 44.3486 36.5907 45.9355C36.5907 53.4818 36.5907 61.028 36.5907 68.5742C36.5907 69.2543 36.6228 69.9668 36.4942 70.6469C36.3333 71.5214 35.9795 72.3311 35.4969 73.076C33.6633 75.7641 31.8619 78.4198 30.0283 81.108C30.4787 81.4966 30.8969 81.9824 31.0577 82.5654C31.3794 83.5694 31.0899 84.7677 30.2857 85.4802C29.5136 86.2252 28.3234 86.4195 27.3583 86.0308C26.4254 85.6746 25.7177 84.7677 25.6212 83.7637C25.4926 82.7597 25.9429 81.7233 26.7471 81.1404C27.3583 80.6546 28.1947 80.525 28.9346 80.6546C30.4787 78.3551 32.0549 76.088 33.599 73.7885C34.178 72.8816 34.9179 72.072 35.2074 71.0032C35.4326 70.2583 35.4326 69.481 35.4326 68.7037C35.4326 61.1251 35.4326 53.5465 35.4326 45.9355C35.4326 44.2514 34.7892 42.5997 33.6633 41.3366C30.929 38.2922 28.1947 35.2154 25.4282 32.1386ZM28.1304 82.6626C27.5513 82.8245 27.3905 83.6666 27.8409 84.0552C28.259 84.4762 29.0633 84.2495 29.1919 83.6666C29.3528 83.0188 28.7094 82.4359 28.1304 82.6626Z" fill="#495965"/>
<path d="M46.2414 40.8195C49.04 37.6456 51.8709 34.504 54.7017 31.3301C54.959 31.6216 55.2485 31.8807 55.5702 32.1074C53.0289 34.9574 50.4555 37.8075 47.9142 40.69C47.5281 41.111 47.1099 41.532 46.7883 42.0178C45.9841 43.1514 45.5337 44.544 45.5337 45.9691C45.5337 53.8715 45.5337 61.7416 45.5337 69.6441C45.5337 70.7452 45.9197 71.7816 46.5631 72.6561C48.3967 75.3118 50.1981 78 51.9995 80.6557C52.6751 80.5585 53.3828 80.6233 53.9618 80.9796C54.7982 81.4654 55.345 82.4046 55.345 83.3762C55.3772 84.3802 54.7982 85.3842 53.8975 85.87C52.9646 86.3882 51.7744 86.3235 50.9058 85.7081C50.0051 85.0927 49.5547 83.9268 49.7799 82.858C49.9086 82.1455 50.3268 81.5301 50.8736 81.1091C48.9757 78.2914 47.0456 75.5061 45.1477 72.6885C44.5686 71.7168 44.3113 70.6157 44.3113 69.4821C44.3113 62.0655 44.3113 54.6488 44.3113 47.2322C44.3113 46.5196 44.2791 45.7747 44.3756 45.0622C44.6008 43.54 45.2442 42.0178 46.2414 40.8195ZM52.2569 82.6637C51.6779 82.858 51.5813 83.7325 52.0639 84.0563C52.4821 84.445 53.2541 84.1535 53.3506 83.6029C53.5436 83.02 52.8359 82.4046 52.2569 82.6637Z" fill="#495965"/>
<path d="M23.7553 38.4551C26.5861 40.1068 29.4169 41.791 32.2478 43.4427C33.5345 44.1876 34.3709 45.645 34.3387 47.1348C34.3387 53.7094 34.3387 60.2516 34.3387 66.8262C34.3065 68.2512 33.7918 69.7734 32.6981 70.7127C31.347 72.0405 30.0603 73.4008 28.7414 74.7287C29.0309 75.2145 29.2883 75.7651 29.2883 76.3156C29.3526 77.4168 28.7092 78.4856 27.712 78.9714C26.8435 79.3924 25.7497 79.3277 24.9455 78.8095C24.0448 78.2265 23.5623 77.1253 23.691 76.0565C23.8196 75.0202 24.5917 74.0809 25.6211 73.7571C26.3609 73.498 27.1652 73.6275 27.8407 73.9514C29.1918 72.5911 30.5107 71.2309 31.8617 69.8706C32.7625 69.0933 33.1806 67.8302 33.1485 66.6643C33.1485 60.1869 33.1485 53.7094 33.1485 47.2644C33.1806 46.1308 32.5694 44.9973 31.5722 44.4467C28.7736 42.795 25.9749 41.1432 23.1763 39.4915C23.4658 39.1676 23.6266 38.8113 23.7553 38.4551ZM26.1036 75.7327C25.5889 76.0242 25.5889 76.8662 26.1358 77.1253C26.6505 77.4492 27.3582 77.0282 27.3582 76.4452C27.3903 75.8298 26.6183 75.3764 26.1036 75.7327Z" fill="#495965"/>
<path d="M49.3295 43.0856C51.9673 41.531 54.6051 39.9765 57.2429 38.4219C57.3716 38.7781 57.5325 39.1344 57.7576 39.4583C54.9268 41.11 52.1282 42.7941 49.2973 44.4459C48.3323 44.9965 47.7211 46.13 47.7533 47.2636C47.7533 53.7086 47.7533 60.1213 47.7533 66.5663C47.7211 67.797 48.1071 69.0925 49.04 69.9022C50.3911 71.23 51.71 72.6227 53.061 73.983C53.7688 73.6267 54.6373 73.5295 55.3772 73.821C56.3744 74.1773 57.1464 75.1489 57.2108 76.2177C57.3073 77.1893 56.8247 78.2257 56.0205 78.7763C55.152 79.3916 53.9296 79.4564 53.0289 78.9058C52.1282 78.42 51.5813 77.3836 51.6135 76.3796C51.6135 75.7966 51.8708 75.2461 52.1603 74.7602C50.8736 73.4324 49.5869 72.1045 48.268 70.809C47.1421 69.8374 46.5952 68.3152 46.563 66.8578C46.563 60.348 46.563 53.8382 46.563 47.3283C46.5309 46.13 47.0134 44.9641 47.8819 44.122C48.3323 43.6362 48.847 43.3771 49.3295 43.0856ZM54.0583 75.6995C53.5114 75.9586 53.4792 76.8006 53.9939 77.1245C54.4765 77.4808 55.2807 77.0597 55.2485 76.4444C55.2807 75.8614 54.573 75.408 54.0583 75.6995Z" fill="#495965"/>
<path d="M24.9457 46.3565C26.2968 46.3241 27.6479 46.3565 28.9989 46.4212C29.8353 46.4536 30.736 46.5832 31.3794 47.1661C31.9906 47.7491 32.1514 48.6236 32.1514 49.4332C32.1514 54.7447 32.1514 60.0886 32.1514 65.4001C32.1836 66.4365 31.8297 67.5053 31.1542 68.3149C30.5752 69.0275 29.771 69.4485 28.9668 69.8371C27.294 70.6792 25.5247 71.2946 23.7876 71.9747C23.8198 72.752 23.6268 73.5941 23.0799 74.177C22.3401 75.0515 21.0533 75.343 20.0239 74.9543C18.9946 74.5981 18.2547 73.5617 18.2225 72.4605C18.1582 71.4889 18.6407 70.5173 19.4449 69.9991C20.3135 69.4161 21.5037 69.3513 22.4044 69.9019C22.8226 70.1286 23.1443 70.5173 23.4338 70.9059C25.4282 70.0962 27.5192 69.4161 29.3849 68.3149C30.3822 67.7644 31.0577 66.6632 31.0255 65.5297C31.0255 60.121 31.0255 54.7123 31.0255 49.3037C31.0255 48.8179 30.9612 48.2349 30.543 47.911C30.1248 47.5872 29.5458 47.5872 29.0311 47.5548C27.7122 47.5224 26.3933 47.49 25.0422 47.49C25.0422 47.1337 25.01 46.7451 24.9457 46.3565ZM20.603 71.586C20.0883 71.8128 19.9918 72.6224 20.4421 72.9787C20.8925 73.3997 21.6967 73.0759 21.761 72.4605C21.8897 71.8451 21.1498 71.2946 20.603 71.586Z" fill="#495965"/>
<path d="M49.7155 47.0373C50.4232 46.4867 51.3561 46.4219 52.2247 46.3896C53.5114 46.3572 54.7981 46.3248 56.0527 46.3572C55.9884 46.7458 55.9562 47.1345 55.9884 47.5231C54.6373 47.5231 53.2862 47.5555 51.9352 47.5879C51.3883 47.6203 50.8093 47.6527 50.3589 48.0089C49.9729 48.3652 49.9407 48.9481 49.9407 49.4339C49.9407 54.8102 49.9407 60.1541 49.9407 65.5304C49.9407 66.4696 50.3911 67.4088 51.1309 67.9918C51.6456 68.4128 52.2568 68.7043 52.8359 68.9958C54.38 69.7083 55.9562 70.2913 57.5325 70.9066C57.9185 70.356 58.4332 69.8702 59.0765 69.6759C60.1059 69.3197 61.3605 69.6435 62.0682 70.518C62.7437 71.2953 62.9367 72.4612 62.5507 73.4328C62.1325 74.4692 61.071 75.2141 59.9773 75.1817C58.8835 75.2141 57.8541 74.5016 57.4038 73.53C57.1786 73.0766 57.1464 72.5584 57.1464 72.0402C55.6024 71.4248 54.0583 70.8742 52.5464 70.1617C51.6135 69.7083 50.6806 69.2873 49.9407 68.5424C49.1687 67.7651 48.7505 66.6639 48.7505 65.5627C48.7505 60.1541 48.7505 54.7454 48.7505 49.3368C48.847 48.4947 49.04 47.5879 49.7155 47.0373ZM59.6556 71.5868C59.1087 71.8135 59.0122 72.6231 59.4947 72.9794C59.9451 73.4004 60.7493 73.0766 60.8136 72.4612C60.9423 71.8458 60.2346 71.2953 59.6556 71.5868Z" fill="#495965"/>
<path d="M102.911 43V26.56H105.575V43H102.911ZM111.66 43H109.044V31H111.636V31.744C112.804 31.072 113.908 30.736 114.948 30.736C116.548 30.736 117.636 31.192 118.212 32.104C118.804 33 119.1 34.488 119.1 36.568V43H116.508V36.64C116.508 35.344 116.364 34.424 116.076 33.88C115.804 33.336 115.236 33.064 114.372 33.064C113.556 33.064 112.772 33.224 112.02 33.544L111.66 33.688V43ZM125.29 33.232V43H122.698V33.232H121.306V31H122.698V30.232C122.698 28.52 122.946 27.344 123.442 26.704C123.938 26.064 124.818 25.744 126.082 25.744L128.674 25.984L128.65 28.12C127.866 28.088 127.21 28.072 126.682 28.072C126.17 28.072 125.81 28.232 125.602 28.552C125.394 28.856 125.29 29.424 125.29 30.256V31H128.458V33.232H125.29ZM130.95 32.296C131.782 31.256 133.158 30.736 135.078 30.736C136.998 30.736 138.366 31.256 139.182 32.296C140.014 33.336 140.43 34.896 140.43 36.976C140.43 39.056 140.03 40.624 139.23 41.68C138.43 42.736 137.046 43.264 135.078 43.264C133.11 43.264 131.726 42.736 130.926 41.68C130.126 40.624 129.726 39.056 129.726 36.976C129.726 34.896 130.134 33.336 130.95 32.296ZM132.918 40.096C133.286 40.736 134.006 41.056 135.078 41.056C136.15 41.056 136.87 40.736 137.238 40.096C137.606 39.456 137.79 38.408 137.79 36.952C137.79 35.496 137.59 34.464 137.19 33.856C136.806 33.248 136.102 32.944 135.078 32.944C134.054 32.944 133.342 33.248 132.942 33.856C132.558 34.464 132.366 35.496 132.366 36.952C132.366 38.408 132.55 39.456 132.918 40.096ZM148.861 43.264C146.461 43.264 144.829 42.6 143.965 41.272C143.117 39.944 142.693 37.76 142.693 34.72C142.693 31.68 143.125 29.52 143.989 28.24C144.853 26.944 146.477 26.296 148.861 26.296C150.285 26.296 151.853 26.496 153.565 26.896L153.469 29.056C152.029 28.8 150.589 28.672 149.149 28.672C147.709 28.672 146.733 29.104 146.221 29.968C145.709 30.816 145.453 32.424 145.453 34.792C145.453 37.144 145.701 38.752 146.197 39.616C146.693 40.464 147.661 40.888 149.101 40.888C150.541 40.888 151.997 40.768 153.469 40.528L153.541 42.736C151.893 43.088 150.333 43.264 148.861 43.264ZM164.964 34.696V40.168C164.98 40.52 165.068 40.784 165.228 40.96C165.404 41.12 165.668 41.224 166.02 41.272L165.948 43.264C164.572 43.264 163.508 42.968 162.756 42.376C161.476 42.968 160.188 43.264 158.892 43.264C156.508 43.264 155.316 41.992 155.316 39.448C155.316 38.232 155.636 37.352 156.276 36.808C156.932 36.264 157.932 35.936 159.276 35.824L162.372 35.56V34.696C162.372 34.056 162.228 33.608 161.94 33.352C161.668 33.096 161.26 32.968 160.716 32.968C159.692 32.968 158.412 33.032 156.876 33.16L156.108 33.208L156.012 31.36C157.756 30.944 159.356 30.736 160.812 30.736C162.284 30.736 163.34 31.056 163.98 31.696C164.636 32.32 164.964 33.32 164.964 34.696ZM159.588 37.672C158.484 37.768 157.932 38.368 157.932 39.472C157.932 40.576 158.42 41.128 159.396 41.128C160.196 41.128 161.044 41 161.94 40.744L162.372 40.6V37.408L159.588 37.672ZM170.864 43H168.248V31H170.84V31.744C171.976 31.072 173.016 30.736 173.96 30.736C175.352 30.736 176.368 31.128 177.008 31.912C178.464 31.128 179.912 30.736 181.352 30.736C182.792 30.736 183.808 31.184 184.4 32.08C184.992 32.96 185.288 34.456 185.288 36.568V43H182.696V36.64C182.696 35.344 182.56 34.424 182.288 33.88C182.032 33.336 181.488 33.064 180.656 33.064C179.936 33.064 179.16 33.224 178.328 33.544L177.92 33.712C178.048 34.032 178.112 35.056 178.112 36.784V43H175.52V36.832C175.52 35.408 175.392 34.424 175.136 33.88C174.88 33.336 174.32 33.064 173.456 33.064C172.656 33.064 171.912 33.224 171.224 33.544L170.864 33.688V43ZM196.901 40.84L197.573 40.768L197.621 42.712C195.797 43.08 194.181 43.264 192.773 43.264C190.997 43.264 189.717 42.776 188.933 41.8C188.165 40.824 187.781 39.264 187.781 37.12C187.781 32.864 189.517 30.736 192.989 30.736C196.349 30.736 198.029 32.568 198.029 36.232L197.861 38.104H190.421C190.437 39.096 190.653 39.824 191.069 40.288C191.485 40.752 192.261 40.984 193.397 40.984C194.533 40.984 195.701 40.936 196.901 40.84ZM195.461 36.088C195.461 34.904 195.269 34.08 194.885 33.616C194.517 33.136 193.885 32.896 192.989 32.896C192.093 32.896 191.437 33.144 191.021 33.64C190.621 34.136 190.413 34.952 190.397 36.088H195.461ZM200.544 43V31H203.136V32.44C204.496 31.56 205.856 30.992 207.216 30.736V33.352C205.84 33.624 204.664 33.976 203.688 34.408L203.16 34.624V43H200.544ZM217.667 40.84L218.339 40.768L218.387 42.712C216.563 43.08 214.947 43.264 213.539 43.264C211.763 43.264 210.483 42.776 209.699 41.8C208.931 40.824 208.547 39.264 208.547 37.12C208.547 32.864 210.283 30.736 213.755 30.736C217.115 30.736 218.795 32.568 218.795 36.232L218.627 38.104H211.187C211.203 39.096 211.419 39.824 211.835 40.288C212.251 40.752 213.027 40.984 214.163 40.984C215.299 40.984 216.467 40.936 217.667 40.84ZM216.227 36.088C216.227 34.904 216.035 34.08 215.651 33.616C215.283 33.136 214.651 32.896 213.755 32.896C212.859 32.896 212.203 33.144 211.787 33.64C211.387 34.136 211.179 34.952 211.163 36.088H216.227ZM232.872 43.264C230.376 43.264 228.632 42.592 227.64 41.248C226.664 39.904 226.176 37.784 226.176 34.888C226.176 31.976 226.672 29.816 227.664 28.408C228.672 27 230.408 26.296 232.872 26.296C235.336 26.296 237.064 27 238.056 28.408C239.048 29.8 239.544 31.952 239.544 34.864C239.544 36.784 239.336 38.336 238.92 39.52C238.52 40.704 237.856 41.608 236.928 42.232L238.944 45.472L236.472 46.624L234.336 43.12C234.032 43.216 233.544 43.264 232.872 43.264ZM229.752 39.544C230.296 40.472 231.336 40.936 232.872 40.936C234.408 40.936 235.44 40.48 235.968 39.568C236.512 38.64 236.784 37.08 236.784 34.888C236.784 32.696 236.504 31.104 235.944 30.112C235.4 29.12 234.376 28.624 232.872 28.624C231.368 28.624 230.336 29.12 229.776 30.112C229.216 31.104 228.936 32.688 228.936 34.864C228.936 37.04 229.208 38.6 229.752 39.544ZM240.757 28.936V26.56H252.757V28.936H248.125V43H245.437V28.936H240.757ZM259.798 28.624C257.766 28.624 256.75 29.336 256.75 30.76C256.75 31.496 256.99 32.024 257.47 32.344C257.95 32.648 259.006 33.032 260.638 33.496C262.286 33.944 263.446 34.488 264.118 35.128C264.79 35.752 265.126 36.744 265.126 38.104C265.126 39.832 264.63 41.128 263.638 41.992C262.662 42.84 261.326 43.264 259.63 43.264C258.27 43.264 256.766 43.104 255.118 42.784L254.254 42.616L254.518 40.48C256.678 40.768 258.326 40.912 259.462 40.912C261.446 40.912 262.438 40.032 262.438 38.272C262.438 37.584 262.214 37.08 261.766 36.76C261.318 36.424 260.31 36.064 258.742 35.68C257.174 35.28 256.006 34.736 255.238 34.048C254.47 33.36 254.086 32.272 254.086 30.784C254.086 29.296 254.566 28.176 255.526 27.424C256.502 26.656 257.846 26.272 259.558 26.272C260.79 26.272 262.246 26.416 263.926 26.704L264.766 26.848L264.55 29.008C262.31 28.752 260.726 28.624 259.798 28.624ZM274.029 37.888H270.669V43H268.005V26.56H274.029C277.757 26.56 279.621 28.4 279.621 32.08C279.621 33.968 279.149 35.408 278.205 36.4C277.277 37.392 275.885 37.888 274.029 37.888ZM270.669 35.584H274.005C275.925 35.584 276.885 34.416 276.885 32.08C276.885 30.96 276.653 30.144 276.189 29.632C275.725 29.12 274.997 28.864 274.005 28.864H270.669V35.584Z" fill="#1A4A9A"/>
<path d="M104.347 61.14C103.404 61.14 102.728 60.8647 102.317 60.314C101.916 59.7633 101.715 58.83 101.715 57.514C101.715 56.198 101.958 55.26 102.443 54.7C102.928 54.14 103.787 53.86 105.019 53.86L107.357 54V64.108H106.321V60.678C105.668 60.986 105.01 61.14 104.347 61.14ZM105.033 54.77C104.156 54.77 103.558 54.9893 103.241 55.428C102.933 55.8667 102.779 56.5667 102.779 57.528C102.779 58.48 102.905 59.166 103.157 59.586C103.418 59.9967 103.852 60.202 104.459 60.202C105 60.202 105.537 60.0993 106.069 59.894L106.321 59.796V54.854C105.742 54.798 105.313 54.77 105.033 54.77ZM113.76 54H114.81V61H113.76V60.51C113.06 60.93 112.37 61.14 111.688 61.14C110.736 61.14 110.102 60.8927 109.784 60.398C109.476 59.9033 109.322 58.9887 109.322 57.654V54H110.372V57.64C110.372 58.6573 110.461 59.3387 110.638 59.684C110.816 60.0293 111.217 60.202 111.842 60.202C112.15 60.202 112.463 60.16 112.78 60.076C113.098 59.9827 113.34 59.894 113.508 59.81L113.76 59.684V54ZM121.772 56.114V59.698C121.8 60.0433 122.07 60.2487 122.584 60.314L122.542 61.14C121.804 61.14 121.249 60.9533 120.876 60.58C120.036 60.9533 119.196 61.14 118.356 61.14C117.712 61.14 117.222 60.958 116.886 60.594C116.55 60.23 116.382 59.7073 116.382 59.026C116.382 58.3447 116.554 57.8453 116.9 57.528C117.245 57.2013 117.786 57.0007 118.524 56.926L120.722 56.716V56.114C120.722 55.638 120.619 55.2973 120.414 55.092C120.208 54.8867 119.928 54.784 119.574 54.784C118.827 54.784 118.052 54.8307 117.25 54.924L116.816 54.966L116.774 54.168C117.8 53.9627 118.71 53.86 119.504 53.86C120.297 53.86 120.871 54.042 121.226 54.406C121.59 54.77 121.772 55.3393 121.772 56.114ZM117.46 58.97C117.46 59.8287 117.814 60.258 118.524 60.258C119.158 60.258 119.784 60.1507 120.4 59.936L120.722 59.824V57.514L118.65 57.71C118.23 57.7473 117.926 57.8687 117.74 58.074C117.553 58.2793 117.46 58.578 117.46 58.97ZM123.927 61V50.948H124.977V61H123.927ZM127.084 61V54H128.134V61H127.084ZM127.084 52.418V51.2H128.134V52.418H127.084ZM131.49 54.91V61H130.44V54.91H129.558V54H130.44V53.37C130.44 52.3807 130.58 51.7087 130.86 51.354C131.14 50.99 131.63 50.808 132.33 50.808L133.744 50.906L133.73 51.774C133.208 51.7553 132.774 51.746 132.428 51.746C132.092 51.746 131.85 51.858 131.7 52.082C131.56 52.306 131.49 52.74 131.49 53.384V54H133.52V54.91H131.49ZM134.781 61V54H135.831V61H134.781ZM134.781 52.418V51.2H135.831V52.418H134.781ZM142.603 60.132L143.009 60.09L143.037 60.916C141.973 61.0653 141.063 61.14 140.307 61.14C139.299 61.14 138.585 60.8507 138.165 60.272C137.745 59.684 137.535 58.774 137.535 57.542C137.535 55.0873 138.511 53.86 140.461 53.86C141.404 53.86 142.109 54.126 142.575 54.658C143.042 55.1807 143.275 56.0067 143.275 57.136L143.219 57.934H138.599C138.599 58.7087 138.739 59.2827 139.019 59.656C139.299 60.0293 139.785 60.216 140.475 60.216C141.175 60.216 141.885 60.188 142.603 60.132ZM142.225 57.094C142.225 56.2353 142.085 55.6287 141.805 55.274C141.535 54.9193 141.087 54.742 140.461 54.742C139.845 54.742 139.379 54.9287 139.061 55.302C138.753 55.6753 138.595 56.2727 138.585 57.094H142.225ZM150.288 50.948V61H149.252V60.524C148.533 60.9347 147.824 61.14 147.124 61.14C146.75 61.14 146.424 61.0933 146.144 61C145.864 60.9067 145.602 60.7387 145.36 60.496C144.856 59.992 144.604 59.0633 144.604 57.71C144.604 56.3473 144.828 55.3673 145.276 54.77C145.733 54.1633 146.484 53.86 147.53 53.86C148.071 53.86 148.645 53.9207 149.252 54.042V50.948H150.288ZM146.172 59.74C146.321 59.9173 146.48 60.0387 146.648 60.104C146.816 60.1693 147.03 60.202 147.292 60.202C147.562 60.202 147.861 60.16 148.188 60.076C148.524 59.9827 148.785 59.894 148.972 59.81L149.252 59.684V54.938C148.654 54.826 148.099 54.77 147.586 54.77C146.876 54.77 146.382 54.9987 146.102 55.456C145.822 55.904 145.682 56.604 145.682 57.556C145.682 58.6387 145.845 59.3667 146.172 59.74ZM159.024 54.91H156.798V58.256C156.798 59.0587 156.854 59.586 156.966 59.838C157.087 60.09 157.367 60.216 157.806 60.216L159.052 60.132L159.122 61C158.497 61.1027 158.021 61.154 157.694 61.154C156.966 61.154 156.462 60.9767 156.182 60.622C155.902 60.2673 155.762 59.5907 155.762 58.592V54.91H154.768V54H155.762V51.858H156.798V54H159.024V54.91ZM160.306 61V54H161.342V54.952C162.154 54.392 163.008 54.0233 163.904 53.846V54.91C163.512 54.9847 163.102 55.1013 162.672 55.26C162.252 55.4187 161.93 55.5587 161.706 55.68L161.356 55.862V61H160.306ZM169.514 54H170.564V61H169.514V60.51C168.814 60.93 168.124 61.14 167.442 61.14C166.49 61.14 165.856 60.8927 165.538 60.398C165.23 59.9033 165.076 58.9887 165.076 57.654V54H166.126V57.64C166.126 58.6573 166.215 59.3387 166.392 59.684C166.57 60.0293 166.971 60.202 167.596 60.202C167.904 60.202 168.217 60.16 168.534 60.076C168.852 59.9827 169.094 59.894 169.262 59.81L169.514 59.684V54ZM174.782 54.798C173.764 54.798 173.256 55.1527 173.256 55.862C173.256 56.1887 173.372 56.422 173.606 56.562C173.839 56.6927 174.371 56.8327 175.202 56.982C176.032 57.122 176.62 57.3227 176.966 57.584C177.311 57.8453 177.484 58.3353 177.484 59.054C177.484 59.7727 177.25 60.3 176.784 60.636C176.326 60.972 175.654 61.14 174.768 61.14C174.189 61.14 173.508 61.0747 172.724 60.944L172.304 60.874L172.36 59.964C173.424 60.1227 174.226 60.202 174.768 60.202C175.309 60.202 175.72 60.118 176 59.95C176.289 59.7727 176.434 59.4833 176.434 59.082C176.434 58.6713 176.312 58.396 176.07 58.256C175.827 58.1067 175.295 57.9667 174.474 57.836C173.652 57.7053 173.069 57.514 172.724 57.262C172.378 57.01 172.206 56.5433 172.206 55.862C172.206 55.1807 172.444 54.6767 172.92 54.35C173.405 54.0233 174.007 53.86 174.726 53.86C175.295 53.86 176.009 53.9253 176.868 54.056L177.26 54.126L177.232 55.022C176.196 54.8727 175.379 54.798 174.782 54.798ZM182.717 54.91H180.491V58.256C180.491 59.0587 180.547 59.586 180.659 59.838C180.781 60.09 181.061 60.216 181.499 60.216L182.745 60.132L182.815 61C182.19 61.1027 181.714 61.154 181.387 61.154C180.659 61.154 180.155 60.9767 179.875 60.622C179.595 60.2673 179.455 59.5907 179.455 58.592V54.91H178.461V54H179.455V51.858H180.491V54H182.717V54.91ZM187.076 64.108V54H188.112V54.504C188.821 54.0747 189.521 53.86 190.212 53.86C191.099 53.86 191.743 54.1447 192.144 54.714C192.545 55.274 192.746 56.2027 192.746 57.5C192.746 58.7973 192.508 59.7307 192.032 60.3C191.565 60.86 190.786 61.14 189.694 61.14C189.125 61.14 188.602 61.0887 188.126 60.986V64.108H187.076ZM190.058 54.798C189.778 54.798 189.475 54.8447 189.148 54.938C188.831 55.0313 188.579 55.1247 188.392 55.218L188.126 55.358V60.076C188.789 60.1787 189.293 60.23 189.638 60.23C190.394 60.23 190.921 60.0153 191.22 59.586C191.528 59.1567 191.682 58.4567 191.682 57.486C191.682 56.5153 191.542 55.8247 191.262 55.414C190.991 55.0033 190.59 54.798 190.058 54.798ZM194.459 61V54H195.495V54.952C196.307 54.392 197.161 54.0233 198.057 53.846V54.91C197.665 54.9847 197.254 55.1013 196.825 55.26C196.405 55.4187 196.083 55.5587 195.859 55.68L195.509 55.862V61H194.459ZM198.854 57.486C198.854 56.2073 199.082 55.2833 199.54 54.714C199.997 54.1447 200.767 53.86 201.85 53.86C202.942 53.86 203.712 54.1447 204.16 54.714C204.617 55.2833 204.846 56.2073 204.846 57.486C204.846 58.7647 204.631 59.6933 204.202 60.272C203.772 60.8507 202.988 61.14 201.85 61.14C200.711 61.14 199.927 60.8507 199.498 60.272C199.068 59.6933 198.854 58.7647 198.854 57.486ZM199.932 57.472C199.932 58.4893 200.053 59.2033 200.296 59.614C200.548 60.0247 201.066 60.23 201.85 60.23C202.643 60.23 203.161 60.0293 203.404 59.628C203.646 59.2173 203.768 58.4987 203.768 57.472C203.768 56.4453 203.632 55.7407 203.362 55.358C203.091 54.966 202.587 54.77 201.85 54.77C201.122 54.77 200.618 54.966 200.338 55.358C200.067 55.7407 199.932 56.4453 199.932 57.472ZM205.777 54H206.897L208.535 60.09H209.053L210.747 54H211.825L209.851 61H207.751L205.777 54ZM213.175 61V54H214.225V61H213.175ZM213.175 52.418V51.2H214.225V52.418H213.175ZM221.614 50.948V61H220.578V60.524C219.859 60.9347 219.15 61.14 218.45 61.14C218.077 61.14 217.75 61.0933 217.47 61C217.19 60.9067 216.929 60.7387 216.686 60.496C216.182 59.992 215.93 59.0633 215.93 57.71C215.93 56.3473 216.154 55.3673 216.602 54.77C217.059 54.1633 217.811 53.86 218.856 53.86C219.397 53.86 219.971 53.9207 220.578 54.042V50.948H221.614ZM217.498 59.74C217.647 59.9173 217.806 60.0387 217.974 60.104C218.142 60.1693 218.357 60.202 218.618 60.202C218.889 60.202 219.187 60.16 219.514 60.076C219.85 59.9827 220.111 59.894 220.298 59.81L220.578 59.684V54.938C219.981 54.826 219.425 54.77 218.912 54.77C218.203 54.77 217.708 54.9987 217.428 55.456C217.148 55.904 217.008 56.604 217.008 57.556C217.008 58.6387 217.171 59.3667 217.498 59.74ZM228.408 60.132L228.814 60.09L228.842 60.916C227.778 61.0653 226.868 61.14 226.112 61.14C225.104 61.14 224.39 60.8507 223.97 60.272C223.55 59.684 223.34 58.774 223.34 57.542C223.34 55.0873 224.315 53.86 226.266 53.86C227.209 53.86 227.913 54.126 228.38 54.658C228.847 55.1807 229.08 56.0067 229.08 57.136L229.024 57.934H224.404C224.404 58.7087 224.544 59.2827 224.824 59.656C225.104 60.0293 225.589 60.216 226.28 60.216C226.98 60.216 227.689 60.188 228.408 60.132ZM228.03 57.094C228.03 56.2353 227.89 55.6287 227.61 55.274C227.339 54.9193 226.891 54.742 226.266 54.742C225.65 54.742 225.183 54.9287 224.866 55.302C224.558 55.6753 224.399 56.2727 224.39 57.094H228.03ZM230.716 61V54H231.752V54.952C232.564 54.392 233.418 54.0233 234.314 53.846V54.91C233.922 54.9847 233.512 55.1013 233.082 55.26C232.662 55.4187 232.34 55.5587 232.116 55.68L231.766 55.862V61H230.716ZM244.009 50.948V61H242.973V60.524C242.254 60.9347 241.545 61.14 240.845 61.14C240.471 61.14 240.145 61.0933 239.865 61C239.585 60.9067 239.323 60.7387 239.081 60.496C238.577 59.992 238.325 59.0633 238.325 57.71C238.325 56.3473 238.549 55.3673 238.997 54.77C239.454 54.1633 240.205 53.86 241.251 53.86C241.792 53.86 242.366 53.9207 242.973 54.042V50.948H244.009ZM239.893 59.74C240.042 59.9173 240.201 60.0387 240.369 60.104C240.537 60.1693 240.751 60.202 241.013 60.202C241.283 60.202 241.582 60.16 241.909 60.076C242.245 59.9827 242.506 59.894 242.693 59.81L242.973 59.684V54.938C242.375 54.826 241.82 54.77 241.307 54.77C240.597 54.77 240.103 54.9987 239.823 55.456C239.543 55.904 239.403 56.604 239.403 57.556C239.403 58.6387 239.566 59.3667 239.893 59.74ZM250.803 60.132L251.209 60.09L251.237 60.916C250.173 61.0653 249.263 61.14 248.507 61.14C247.499 61.14 246.785 60.8507 246.365 60.272C245.945 59.684 245.735 58.774 245.735 57.542C245.735 55.0873 246.71 53.86 248.661 53.86C249.603 53.86 250.308 54.126 250.775 54.658C251.241 55.1807 251.475 56.0067 251.475 57.136L251.419 57.934H246.799C246.799 58.7087 246.939 59.2827 247.219 59.656C247.499 60.0293 247.984 60.216 248.675 60.216C249.375 60.216 250.084 60.188 250.803 60.132ZM250.425 57.094C250.425 56.2353 250.285 55.6287 250.005 55.274C249.734 54.9193 249.286 54.742 248.661 54.742C248.045 54.742 247.578 54.9287 247.261 55.302C246.953 55.6753 246.794 56.2727 246.785 57.094H250.425ZM253.195 61V50.948H254.245V61H253.195ZM256.435 61V50.948H257.485V61H256.435ZM264.351 60.132L264.757 60.09L264.785 60.916C263.721 61.0653 262.811 61.14 262.055 61.14C261.047 61.14 260.333 60.8507 259.913 60.272C259.493 59.684 259.283 58.774 259.283 57.542C259.283 55.0873 260.259 53.86 262.209 53.86C263.152 53.86 263.857 54.126 264.323 54.658C264.79 55.1807 265.023 56.0067 265.023 57.136L264.967 57.934H260.347C260.347 58.7087 260.487 59.2827 260.767 59.656C261.047 60.0293 261.533 60.216 262.223 60.216C262.923 60.216 263.633 60.188 264.351 60.132ZM263.973 57.094C263.973 56.2353 263.833 55.6287 263.553 55.274C263.283 54.9193 262.835 54.742 262.209 54.742C261.593 54.742 261.127 54.9287 260.809 55.302C260.501 55.6753 260.343 56.2727 260.333 57.094H263.973ZM275.77 60.846C274.809 61.042 273.945 61.14 273.18 61.14C272.415 61.14 271.794 61.0373 271.318 60.832C270.851 60.6173 270.487 60.2907 270.226 59.852C269.974 59.404 269.797 58.8953 269.694 58.326C269.601 57.7473 269.554 57.0287 269.554 56.17C269.554 55.3113 269.601 54.5927 269.694 54.014C269.797 53.426 269.974 52.908 270.226 52.46C270.487 52.012 270.851 51.6853 271.318 51.48C271.785 51.2747 272.391 51.172 273.138 51.172C273.885 51.172 274.762 51.2747 275.77 51.48L275.728 52.39C274.785 52.222 273.945 52.138 273.208 52.138C272.181 52.138 271.5 52.446 271.164 53.062C270.837 53.6687 270.674 54.7093 270.674 56.184C270.674 56.9213 270.702 57.514 270.758 57.962C270.823 58.41 270.945 58.816 271.122 59.18C271.299 59.5347 271.556 59.7913 271.892 59.95C272.237 60.0993 272.737 60.174 273.39 60.174C274.053 60.174 274.832 60.09 275.728 59.922L275.77 60.846ZM283.276 60.846C282.315 61.042 281.451 61.14 280.686 61.14C279.921 61.14 279.3 61.0373 278.824 60.832C278.357 60.6173 277.993 60.2907 277.732 59.852C277.48 59.404 277.303 58.8953 277.2 58.326C277.107 57.7473 277.06 57.0287 277.06 56.17C277.06 55.3113 277.107 54.5927 277.2 54.014C277.303 53.426 277.48 52.908 277.732 52.46C277.993 52.012 278.357 51.6853 278.824 51.48C279.291 51.2747 279.897 51.172 280.644 51.172C281.391 51.172 282.268 51.2747 283.276 51.48L283.234 52.39C282.291 52.222 281.451 52.138 280.714 52.138C279.687 52.138 279.006 52.446 278.67 53.062C278.343 53.6687 278.18 54.7093 278.18 56.184C278.18 56.9213 278.208 57.514 278.264 57.962C278.329 58.41 278.451 58.816 278.628 59.18C278.805 59.5347 279.062 59.7913 279.398 59.95C279.743 60.0993 280.243 60.174 280.896 60.174C281.559 60.174 282.338 60.09 283.234 59.922L283.276 60.846ZM285.039 61V51.312H286.117V61H285.039ZM287.63 61L290.29 51.312H292.642L295.302 61H294.238L293.538 58.508H289.394L288.694 61H287.63ZM291.102 52.236L289.632 57.542H293.3L291.83 52.236H291.102ZM295.97 61L298.63 51.312H300.982L303.642 61H302.578L301.878 58.508H297.734L297.034 61H295.97ZM299.442 52.236L297.972 57.542H301.64L300.17 52.236H299.442Z" fill="#5F6164"/>
</svg>
