<svg width="215" height="215" viewBox="0 0 215 215" fill="none" xmlns="http://www.w3.org/2000/svg">
<circle cx="107.5" cy="107.5" r="105.5" fill="white" fill-opacity="0.25" stroke="#1A4A9A" stroke-width="4"/>
<path d="M107.5 108.125C105.141 108.125 103.25 106.213 103.25 103.875C103.25 101.516 105.141 99.625 107.5 99.625C108.627 99.625 109.708 100.073 110.505 100.87C111.302 101.667 111.75 102.748 111.75 103.875C111.75 105.002 111.302 106.083 110.505 106.88C109.708 107.677 108.627 108.125 107.5 108.125ZM120.25 114.5V93.25H94.75V114.5H120.25ZM120.25 89C121.377 89 122.458 89.4478 123.255 90.2448C124.052 91.0418 124.5 92.1228 124.5 93.25V114.5C124.5 115.627 124.052 116.708 123.255 117.505C122.458 118.302 121.377 118.75 120.25 118.75H94.75C92.3912 118.75 90.5 116.838 90.5 114.5V93.25C90.5 90.8913 92.3912 89 94.75 89H96.875V84.75C96.875 81.9321 97.9944 79.2296 99.987 77.237C101.98 75.2444 104.682 74.125 107.5 74.125C108.895 74.125 110.277 74.3998 111.566 74.9338C112.855 75.4677 114.026 76.2504 115.013 77.237C116 78.2236 116.782 79.3949 117.316 80.684C117.85 81.9731 118.125 83.3547 118.125 84.75V89H120.25ZM107.5 78.375C105.809 78.375 104.188 79.0466 102.992 80.2422C101.797 81.4377 101.125 83.0592 101.125 84.75V89H113.875V84.75C113.875 83.0592 113.203 81.4377 112.008 80.2422C110.812 79.0466 109.191 78.375 107.5 78.375Z" fill="#1A4A9A"/>
<circle cx="90.5" cy="138.5" r="2.5" fill="#9BC9FF"/>
<circle cx="98.5" cy="138.5" r="2.5" fill="#9BC9FF"/>
<circle cx="106.5" cy="138.5" r="2.5" fill="#9BC9FF"/>
<circle cx="114.5" cy="138.5" r="2.5" fill="#9BC9FF"/>
<circle cx="122.5" cy="138.5" r="2.5" fill="#9BC9FF"/>
<rect x="82.5" y="133.5" width="48" height="10" rx="5" stroke="#57A4FF"/>
<rect x="72.5" y="41.5" width="69" height="133" rx="5.5" stroke="#165296" stroke-width="5"/>
<rect x="74" y="53" width="67" height="5" fill="#165296"/>
<rect x="74" y="158" width="67" height="5" fill="#165296"/>
<rect x="101" y="46" width="12" height="5" fill="#165296"/>
<rect x="102" y="165" width="9" height="5" fill="#165296"/>
</svg>
