<svg width="215" height="215" viewBox="0 0 215 215" fill="none" xmlns="http://www.w3.org/2000/svg">
<circle cx="107.5" cy="107.5" r="105.5" fill="white" fill-opacity="0.25" stroke="#1A4A9A" stroke-width="4"/>
<rect x="132" y="50" width="21" height="31" fill="#F9F9F9"/>
<g clip-path="url(#clip0)">
<path d="M51.6432 119.336C51.0146 119.336 50.3951 119.227 49.8013 119.011L47.0175 118.001L44.2351 119.016C43.6389 119.234 43.0162 119.344 42.384 119.344C40.4665 119.344 38.6782 118.312 37.7168 116.65L37.6987 116.619L37.7078 128.302C37.7078 129.31 38.2623 130.226 39.1547 130.692C39.5494 130.899 39.9784 131.001 40.4059 131.001C40.945 131.001 41.4815 130.839 41.943 130.518L46.9681 127.03L51.9931 130.518C52.8205 131.092 53.8889 131.159 54.7814 130.692C55.6739 130.226 56.2283 129.31 56.2283 128.302V116.779C55.2491 118.36 53.508 119.336 51.6432 119.336Z" fill="#1A4A9A"/>
<path d="M62.0571 96.7996L59.0342 94.2677L58.346 90.385C58.1172 89.0945 57.0006 88.1587 55.6904 88.1587C55.6895 88.1587 55.6886 88.1587 55.6877 88.1587L51.7446 88.1622L48.7217 85.6307C47.7164 84.7886 46.2582 84.7899 45.2543 85.6338L42.236 88.1711L38.2929 88.1748C36.9815 88.1761 35.8653 89.1144 35.6388 90.406L34.9576 94.2899L31.9393 96.8272C30.9355 97.6711 30.6836 99.1073 31.3403 100.242L33.315 103.656L32.6339 107.539C32.4072 108.831 33.1375 110.093 34.3703 110.541L38.0769 111.886L40.0516 115.299C40.5459 116.153 41.4446 116.646 42.3843 116.646C42.693 116.646 43.0062 116.593 43.311 116.482L47.0151 115.13L50.7217 116.475C51.9543 116.922 53.3241 116.422 53.9788 115.286L55.9473 111.869L59.6515 110.517C60.8833 110.068 61.6112 108.804 61.3823 107.513L60.694 103.63L62.6625 100.214C63.3171 99.0773 63.0625 97.6415 62.0571 96.7996ZM46.9999 108.94C42.7119 108.94 39.2233 105.452 39.2233 101.164C39.2233 96.8758 42.7119 93.3872 46.9999 93.3872C51.2879 93.3872 54.7766 96.8758 54.7766 101.164C54.7766 105.452 51.2879 108.94 46.9999 108.94Z" fill="#1A4A9A"/>
<path d="M51.7024 103.112C52.7768 100.519 51.5465 97.5471 48.9544 96.4727C46.3623 95.3982 43.39 96.6286 42.3155 99.2207C41.2411 101.813 42.4714 104.785 45.0635 105.859C47.6556 106.934 50.6279 105.704 51.7024 103.112Z" fill="#56A2FB"/>
</g>
<path d="M109.351 130.296C104.829 131.277 100.754 131.768 97.1273 131.768C93.5006 131.768 90.5993 131.32 88.4233 130.424C86.2473 129.528 84.5406 128.099 83.3033 126.136C82.0659 124.173 81.2126 121.869 80.7433 119.224C80.2739 116.579 80.0393 113.251 80.0393 109.24C80.0393 100.835 81.2126 94.9893 83.5593 91.704C85.9486 88.376 90.3219 86.712 96.6793 86.712C100.349 86.712 104.594 87.288 109.415 88.44L109.159 95.48C104.935 94.84 101.415 94.52 98.5993 94.52C95.8259 94.52 93.8419 94.904 92.6473 95.672C91.4526 96.3973 90.5566 97.8053 89.9593 99.896C89.4046 101.987 89.1273 105.549 89.1273 110.584C89.1273 115.619 89.7033 119.117 90.8553 121.08C92.0499 123 94.3966 123.96 97.8953 123.96C101.437 123.96 105.191 123.661 109.159 123.064L109.351 130.296ZM116.517 131V87.48H131.429L141.925 123.32H142.565V87.48H151.397V131H136.869L125.989 95.16H125.349V131H116.517ZM174.268 94.392C169.618 94.392 167.292 95.928 167.292 99C167.292 100.365 167.868 101.411 169.02 102.136C170.172 102.861 172.86 103.907 177.084 105.272C181.351 106.637 184.338 108.195 186.044 109.944C187.751 111.651 188.604 114.296 188.604 117.88C188.604 122.445 187.218 125.901 184.444 128.248C181.671 130.595 178.044 131.768 173.564 131.768C170.236 131.768 166.162 131.256 161.34 130.232L159.036 129.784L159.932 122.936C165.65 123.704 170.023 124.088 173.052 124.088C177.575 124.088 179.836 122.211 179.836 118.456C179.836 117.091 179.303 116.024 178.236 115.256C177.212 114.488 175.143 113.656 172.028 112.76C167.079 111.352 163.58 109.688 161.532 107.768C159.527 105.805 158.524 103.096 158.524 99.64C158.524 95.288 159.847 92.0453 162.492 89.912C165.138 87.7787 168.764 86.712 173.372 86.712C176.53 86.712 180.54 87.1387 185.404 87.992L187.708 88.44L187.004 95.416C180.988 94.7333 176.743 94.392 174.268 94.392Z" fill="#1A4A9A"/>
<defs>
<clipPath id="clip0">
<rect width="46" height="46" fill="white" transform="translate(24 85)"/>
</clipPath>
</defs>
</svg>
